<?xml version="1.0" encoding="UTF-8"?>
<!-- Generator: Adobe Illustrator 19.1.0, SVG Export Plug-In . SVG Version: 6.00 Build 0)  -->
<!DOCTYPE svg PUBLIC "-//W3C//DTD SVG 1.1//EN" "http://www.w3.org/Graphics/SVG/1.1/DTD/svg11.dtd">
<svg xmlns="http://www.w3.org/2000/svg" xmlns:xlink="http://www.w3.org/1999/xlink" xmlns:dc="http://purl.org/dc/elements/1.1/" xmlns:cc="http://creativecommons.org/ns#" xmlns:rdf="http://www.w3.org/1999/02/22-rdf-syntax-ns#" version="1.1" id="DESIGNS" x="0px" y="0px" width="64px" height="64px" viewBox="0 0 64 64" style="enable-background:new 0 0 64 64;" xml:space="preserve">
<title property="dc:title">to scare</title><desc property="dc:description">An icon for "scare" from the Fandom series on to [icon]. Downloaded from http://www.toicon.com/icons/fandom_scare by 79.151.191.67 on 2022-03-24. Licensed CC-BY, see http://toicon.com/license/ for details.</desc>
<g>
	<g>
		<path class="fandom_acht" d="M32,7C18.193,7,7,18.193,7,32h50C57,18.193,45.807,7,32,7z" style="fill: #6BC4D2;"/>
		<path class="fandom_zeven" d="M32,57c13.807,0,25-11.193,25-25H7C7,45.807,18.193,57,32,57z" style="fill: #508D9B;"/>
	</g>
	<g>
		<path class="fandom_zestien" d="M32,4.129V58H19.404l-1.701-47.796c-0.007-0.192,0.042-0.382,0.141-0.548l1.371-2.294    c0.119-0.199,0.304-0.351,0.522-0.429l4.154-1.483c0.246-0.088,0.516-0.076,0.754,0.033l1.385,0.637    c0.466,0.214,1.019,0.041,1.279-0.402l0.645-1.096c0.18-0.305,0.508-0.493,0.862-0.493H32z M43.602,64l2.19-3.766L44.492,58    h-0.267l-3.406,6H43.602z M33.563,64h2.783l3.406-6h-2.783L33.563,64z M26.307,64h2.783l3.406-6h-2.783L26.307,64z M19.051,64    h2.783l3.406-6h-2.783L19.051,64z" style="fill: #4D4D4D;"/>
		<path class="fandom_zeventien" d="M46.335,9.452l-1.748-2.091c-0.119-0.199-0.304-0.351-0.522-0.429L39.911,5.45    c-0.246-0.088-0.517-0.076-0.754,0.033l-1.385,0.637c-0.466,0.214-1.019,0.041-1.279-0.402l-0.645-1.096    c-0.18-0.305-0.508-0.493-0.862-0.493H32L32.048,58h12.429l1.999-48C46.483,9.808,46.434,9.618,46.335,9.452z" style="fill: #666666;"/>
		<path class="fandom_negentien" d="M42.999,11l-1.252,47H22.019l-2.018-46.963C19.98,10.47,20.433,10,21,10h21    C42.567,10,43.02,10.434,42.999,11z M36,4c0,2.206-1.794,4-4,4s-4-1.794-4-4s1.794-4,4-4S36,1.794,36,4z M16.89,34.312    l-0.999,1.044c-0.167,0.175-0.266,0.405-0.276,0.647l-1.072,16.048c-0.018,0.395-0.266,0.742-0.634,0.887l-5.197,1.86    c-0.383,0.15-0.691,0.52-0.691,0.931V57c0,0.552,0.511,1,1.063,1l10.325,0l-0.823-23.031    C18.555,34.084,17.502,33.673,16.89,34.312z M45.435,34.969L44.492,58h10.424c0.552,0,1.063-0.448,1.063-1v-1.272    c0-0.411-0.308-0.781-0.691-0.931l-5.239-1.86c-0.368-0.144-0.616-0.492-0.634-0.887l-1.072-16.048    c-0.011-0.242-0.109-0.472-0.276-0.647l-0.999-1.044C46.457,33.673,45.465,34.084,45.435,34.969z" style="fill: #CCCCCC;"/>
		<path class="fandom_veertien" d="M42.999,11c0.021-0.566-0.433-1-0.999-1H32l-4,48h13.747L42.999,11z" style="fill: #EFEAE0;"/>
		<path class="fandom_een" d="M29.981,35.928h-7.95v-19.53c0-5.276,7.95-5.239,7.95,0V35.928z M23.994,34h4.024V16.398    c0-2.669-4.024-2.651-4.024,0V34z M41,35.99h-8V16.398c0-5.279,8-5.24,8,0V35.99z M35,34h4V16.398c0-2.668-4-2.648-4,0V34z M30,53    h-8V39h8V53z M24,51h4V41h-4V51z M41,53h-8V39h8V53z M35,51h4V41h-4V51z M32,2.5c-0.828,0-1.5,0.672-1.5,1.5s0.672,1.5,1.5,1.5    s1.5-0.672,1.5-1.5S32.828,2.5,32,2.5z" style="fill: #FF786E;"/>
		<path class="fandom_twee" d="M31.331,2.664C30.84,2.911,30.5,3.413,30.5,4c0,0.828,0.672,1.5,1.5,1.5    c0.587,0,1.089-0.34,1.336-0.831C32.048,5.316,30.684,3.951,31.331,2.664z" style="fill: #BE5652;"/>
		<path class="fandom_vier" d="M40,36.5c0,0.828-0.672,1.5-1.5,1.5S37,37.328,37,36.5s0.672-1.5,1.5-1.5S40,35.672,40,36.5z     M25.24,58l-3.406,6h4.473l3.406-6H25.24z M19.479,58l-3.458,6h3.03l3.406-6H19.479z M39.752,58l-3.406,6h4.473l3.406-6H39.752z     M32.496,58l-3.406,6h4.473l3.406-6H32.496z M45.787,60.242L43.602,64h4.377L45.787,60.242z" style="fill: #FFC865;"/>
		<path class="fandom_drie" d="M37.831,35.164C37.34,35.411,37,35.913,37,36.5c0,0.828,0.672,1.5,1.5,1.5    c0.587,0,1.089-0.34,1.336-0.831C38.548,37.816,37.184,36.451,37.831,35.164z" style="fill: #BE9148;"/>
	</g>
</g>
<metadata><work rdf:about=""><format>image/svg+xml</format><type rdf:resource="http://purl.org/dc/dcmitype/StillImage"/><license rdf:resource="http://creativecommons.org/licenses/by/4.0/"/><attributionname>Carol Liao</attributionname><attributionurl>http://www.toicon.com/icons/fandom_scare</attributionurl></work></metadata></svg>
