<?xml version="1.0" encoding="UTF-8"?>
<!-- Generator: Adobe Illustrator 19.1.0, SVG Export Plug-In . SVG Version: 6.00 Build 0)  -->
<!DOCTYPE svg PUBLIC "-//W3C//DTD SVG 1.1//EN" "http://www.w3.org/Graphics/SVG/1.1/DTD/svg11.dtd">
<svg xmlns="http://www.w3.org/2000/svg" xmlns:xlink="http://www.w3.org/1999/xlink" xmlns:dc="http://purl.org/dc/elements/1.1/" xmlns:cc="http://creativecommons.org/ns#" xmlns:rdf="http://www.w3.org/1999/02/22-rdf-syntax-ns#" version="1.1" id="DESIGNS" x="0px" y="0px" width="64px" height="64px" viewBox="0 0 64 64" style="enable-background:new 0 0 64 64;" xml:space="preserve">
<title property="dc:title">to point</title><desc property="dc:description">An icon for "point" from the Fandom series on to [icon]. Downloaded from http://www.toicon.com/icons/fandom_point by 79.151.191.67 on 2022-03-24. Licensed CC-BY, see http://toicon.com/license/ for details.</desc>
<g>
	<g>
		<path class="fandom_tien" d="M32,7C18.193,7,7,18.193,7,32h50C57,18.193,45.807,7,32,7z" style="fill: #8579A3;"/>
		<path class="fandom_negen" d="M32,57c13.807,0,25-11.193,25-25H7C7,45.807,18.193,57,32,57z" style="fill: #685683;"/>
	</g>
	<g>
		<path class="fandom_elf" d="M9.91,7.807L7.709,9.815c-3.825,3.488-4.767,10.068-2.231,17.193C9.513,38.049,20.585,47,30.211,47    c3.253,0,5.924-1.024,7.878-2.805l2.202-2.008c-1.954,1.782-4.625,2.805-7.878,2.805c-9.627,0-20.698-8.951-24.734-19.992    C5.006,17.688,6.085,11.295,9.91,7.807z" style="fill: #4B322A;"/>
		<path class="fandom_twaalf" d="M42.524,25c-4.039-11.049-15.11-20-24.73-20C8.168,5,3.64,13.951,7.679,25    c4.036,11.041,15.108,19.992,24.734,19.992C42.033,44.992,46.56,36.041,42.524,25z M31.461,42.387    c-8.372,0-17.995-7.786-21.505-17.387c-3.512-9.609,0.421-17.387,8.793-17.387c8.365,0,17.992,7.778,21.505,17.387    c0.888,2.43,1.296,4.676,1.279,6.681C41.548,37.966,37.763,42.387,31.461,42.387z" style="fill: #644638;"/>
		<path class="fandom_twee" d="M39.167,36.369l-12.591-7.343l-0.639,0.649l-0.005-1.311l0.44,0.102l4.357-1.187L39.167,36.369z     M24.265,20.446l-0.089-0.036l-0.547,0.556l-12.597-7.343l8.443,9.098l4.362-1.188l0.431,0.1L24.265,20.446z M26.867,21.502    l-0.961-0.391l0.003,0.894l3.152,0.715l1.791-9.097l-4.319,4.391l0.572,3.3c0.026,0.128-0.041,0.208-0.143,0.208    C26.933,21.523,26.901,21.516,26.867,21.502z M19.348,36.369l4.955-5.034l-0.012-3.343l-3.151-0.714L19.348,36.369z" style="fill: #BE5652;"/>
		<path class="fandom_dertien" d="M37.433,34.501l-0.71-0.765c0.913-2.161,0.964-4.978-0.033-8.077l0.701-0.191    C38.566,28.957,38.503,32.121,37.433,34.501z M25.704,13.233c1.191,0.547,2.361,1.253,3.475,2.092l0.484-0.492    c-1.31-1.009-2.698-1.848-4.111-2.474L25.704,13.233z M12.818,24.53l0.695-0.189c-0.998-3.1-0.945-5.917-0.032-8.08l-0.705-0.76    C11.707,17.881,11.645,21.043,12.818,24.53z M19.868,33.734c-2.493-2.16-4.605-4.977-5.872-8.075l-0.833-0.189    c1.375,3.485,3.748,6.647,6.555,9.026L19.868,33.734z M20.917,11.973c1.154,0.065,2.333,0.32,3.506,0.738l0.146-0.752    c-1.383-0.511-2.779-0.812-4.137-0.863L20.917,11.973z M37.049,24.531c-1.376-3.49-3.753-6.654-6.565-9.035l-0.15,0.763    c2.494,2.163,4.606,4.982,5.875,8.082L37.049,24.531z M36.252,34.669c-1.168,1.954-3.169,3.195-5.813,3.35l0.157,0.885    c2.998-0.115,5.242-1.515,6.502-3.742L36.252,34.669z M25.051,37.594c-0.029,0-0.057,0.006-0.08,0.02l-0.164,0.093    c0.226,0.098,0.454,0.19,0.681,0.277l-0.166-0.229C25.25,37.654,25.141,37.594,25.051,37.594z M22.883,35.913    c-0.633-0.373-1.255-0.789-1.86-1.245l-0.485,0.492c0.759,0.586,1.545,1.114,2.347,1.577L22.883,35.913z M13.954,15.326    c1.169-1.955,3.171-3.198,5.814-3.353l-0.156-0.877c-2.996,0.116-5.24,1.515-6.5,3.739L13.954,15.326z M29.29,38.019    c-0.622-0.035-1.252-0.125-1.884-0.267l0.002,0.823c0.796,0.187,1.59,0.299,2.372,0.328L29.29,38.019z" style="fill: #AA9991;"/>
		<path class="fandom_vijftien" d="M24.953,10.593c-0.069,0-0.125,0.036-0.141,0.119l-1.74,8.967    c-0.033,0.133,0.087,0.313,0.24,0.376l0.954,0.391l0.041,11.768l-1.403,2.559l-0.023,0.086l0.01,3.365    c0.002,0.177,0.187,0.359,0.339,0.359c0.03,0,1.793-0.989,1.822-0.989c0.09,0,0.199,0.06,0.271,0.161l1.666,2.3    c0.081,0.11,0.188,0.164,0.274,0.164c0.086,0,0.151-0.055,0.149-0.164l-0.007-3.357l-0.026-0.11l-1.414-3.662l-0.058-11.815    c0,0,1.027,0.412,1.056,0.412c0.102,0,0.168-0.08,0.143-0.208l-1.804-10.399C25.263,10.725,25.084,10.593,24.953,10.593z" style="fill: #3A3A3A;"/>
		<path class="fandom_zeven" d="M39.115,25l-12.743,3.466l-0.44-0.102l-0.023-6.359L39.115,25z M11.088,25l13.204,2.993    l-0.022-6.359l-0.492-0.115L11.088,25z M23.311,20.055c-0.152-0.063-0.273-0.243-0.24-0.376l0.548-2.822l-4.395-7.945    l1.883,10.583l2.523,1.47l0.547-0.556L23.311,20.055z M26.576,29.026l-0.639,0.649l0.008,2.299l5.038,9.105l-1.882-10.581    L26.576,29.026z" style="fill: #508D9B;"/>
		<path class="fandom_veertien" d="M40.254,25C36.742,15.391,27.115,7.613,18.749,7.613c-8.372,0-12.306,7.778-8.793,17.387    c3.51,9.601,13.133,17.387,21.505,17.387C39.826,42.387,43.764,34.601,40.254,25z M37.099,35.163    c-1.26,2.227-3.505,3.626-6.502,3.741l0.387,2.175l-1.204-2.175c-0.781-0.029-1.576-0.141-2.372-0.328l0.003,1.479    c0.003,0.11-0.063,0.164-0.149,0.164c-0.086,0-0.193-0.055-0.274-0.164l-1.5-2.071c-0.222-0.085-0.444-0.175-0.666-0.271    c-0.479,0.26-1.571,0.869-1.594,0.869c-0.152,0-0.337-0.182-0.339-0.359l-0.004-1.486c-0.802-0.463-1.587-0.992-2.347-1.577    l-1.19,1.209l0.369-1.873c-2.807-2.379-5.18-5.541-6.555-9.026L11.088,25l1.729-0.474c-1.172-3.485-1.109-6.646-0.041-9.025    l-1.743-1.878l2.08,1.212c1.26-2.225,3.504-3.623,6.5-3.739l-0.388-2.183l1.208,2.183c1.359,0.051,2.755,0.352,4.137,0.863    l0.242-1.247c0.016-0.083,0.072-0.119,0.141-0.119c0.132,0,0.311,0.133,0.349,0.323l0.25,1.443    c1.413,0.626,2.801,1.465,4.111,2.474l1.19-1.21l-0.369,1.873c2.812,2.381,5.189,5.545,6.565,9.035L39.115,25l-1.724,0.469    c1.174,3.488,1.111,6.652,0.042,9.032l1.734,1.868L37.099,35.163z M13.514,24.341c-0.998-3.1-0.945-5.917-0.032-8.08l5.995,6.46    L13.514,24.341z M36.723,33.737l-5.994-6.457l5.96-1.62C37.688,28.759,37.636,31.576,36.723,33.737z M36.208,24.341l-7.146-1.621    l1.272-6.461C32.827,18.421,34.94,21.24,36.208,24.341z M29.178,15.325l-2.646,2.69l-0.829-4.781    C26.895,13.78,28.065,14.487,29.178,15.325z M19.769,11.973l1.339,7.523l-7.153-4.17C15.124,13.371,17.125,12.128,19.769,11.973z     M13.995,25.659l7.145,1.62l-1.273,6.456C17.375,31.574,15.263,28.757,13.995,25.659z M30.439,38.019l-1.337-7.521l7.15,4.17    C35.083,36.623,33.083,37.864,30.439,38.019z M24.267,32.238l-1.364,2.535l-0.023,0.086l0.003,1.053    c-0.633-0.373-1.255-0.789-1.86-1.245l3.28-3.332l0.003,0.879L24.267,32.238z M25.964,32.926l-0.015-0.023l-0.003-0.929    l3.345,6.045c-0.622-0.035-1.252-0.125-1.884-0.267l-0.002-1.055l-0.026-0.11L25.964,32.926z M24.423,12.711l-0.804,4.146    l-2.702-4.884C20.917,11.973,22.394,11.953,24.423,12.711z" style="fill: #EFEAE0;"/>
	</g>
</g>
<metadata><work rdf:about=""><format>image/svg+xml</format><type rdf:resource="http://purl.org/dc/dcmitype/StillImage"/><license rdf:resource="http://creativecommons.org/licenses/by/4.0/"/><attributionname>Carol Liao</attributionname><attributionurl>http://www.toicon.com/icons/fandom_point</attributionurl></work></metadata></svg>
