<?xml version="1.0" encoding="UTF-8"?>
<!-- Generator: Adobe Illustrator 19.1.0, SVG Export Plug-In . SVG Version: 6.00 Build 0)  -->
<!DOCTYPE svg PUBLIC "-//W3C//DTD SVG 1.1//EN" "http://www.w3.org/Graphics/SVG/1.1/DTD/svg11.dtd">
<svg xmlns="http://www.w3.org/2000/svg" xmlns:xlink="http://www.w3.org/1999/xlink" xmlns:dc="http://purl.org/dc/elements/1.1/" xmlns:cc="http://creativecommons.org/ns#" xmlns:rdf="http://www.w3.org/1999/02/22-rdf-syntax-ns#" version="1.1" id="DESIGNS" x="0px" y="0px" width="64px" height="64px" viewBox="0 0 64 64" style="enable-background:new 0 0 64 64;" xml:space="preserve">
<title property="dc:title">to protect</title><desc property="dc:description">An icon for "protect" from the Fandom series on to [icon]. Downloaded from http://www.toicon.com/icons/fandom_protect by 79.151.191.67 on 2022-03-24. Licensed CC-BY, see http://toicon.com/license/ for details.</desc>
<g>
	<g>
		<path class="fandom_zes" d="M32,7C18.193,7,7,18.193,7,32h50C57,18.193,45.807,7,32,7z" style="fill: #00B3AA;"/>
		<path class="fandom_vijf" d="M32,57c13.807,0,25-11.193,25-25H7C7,45.807,18.193,57,32,57z" style="fill: #018273;"/>
	</g>
	<g>
		<path class="fandom_vier" d="M35.554,35.619c-2.382,2.382-5.063,3.561-5.989,2.635c-0.764-0.764-0.095-2.721,1.498-4.72    l1.26,1.306c0.893-0.67,1.792-1.568,2.466-2.47l-1.304-1.255c1.993-1.585,3.943-2.248,4.704-1.486    C39.116,30.556,37.936,33.238,35.554,35.619z M4.832,4.227c-0.204-0.1-0.412-0.051-0.553,0.075l19.176,17.163l3.919,0.648    L10.506,9.046l4.375,0.133L4.832,4.227z M17.183,32.893c6.207,3.301,16.511-5.339,16.342-12.2    c-0.093-3.784-0.992-5.979-3.993-10.095c-1.86-1.022-5.038-2.552-7.727-4.609c0,0,4.433,1.139,5.421,0.426    c-3.061-1.2-6.333-2.801-8.993-4.755c-0.351-0.258-1.793-1.295-1.538-0.099c0.961,4.512,4.696,7.55,8.184,10.411    c12.726,10.438-2.548,25.68-12.972,12.972c-2.861-3.488-5.899-7.224-10.411-8.184c-0.518-0.11-0.532,0.099-0.532,0.099    C10.268,21.374,11.113,29.664,17.183,32.893z" style="fill: #FFC865;"/>
		<path class="fandom_drie" d="M56.274,59.791L34.221,36.807c0.952-0.75,1.836-1.647,2.538-2.542L59.739,56.32    C62.108,58.599,58.58,62.181,56.274,59.791z M9.114,14.946l-0.133-4.375l13.067,16.867L21.4,23.519l4.441,4.603    c0.911-0.57,1.612-1.246,2.231-2.215l-4.617-4.443L4.279,4.302c-0.155,0.139-0.227,0.37-0.117,0.595L9.114,14.946z M36.184,16.894    c-1.167-2.966-3.872-4.768-6.652-6.296c3.001,4.116,3.9,6.311,3.993,10.095c0.169,6.85-10.127,15.505-16.342,12.2    C11.116,29.666,10.31,21.376,1,16.858c0,0-0.239,0.304,0.595,1.439C3.55,20.957,5.15,24.23,6.35,27.29    c0.713-0.988-0.426-5.421-0.426-5.421c1.003,1.31,1.824,2.654,2.64,4.078c2.118,3.7,3.971,8.612,8.265,10.301    c3.707,1.458,10.944,0.5,12.711-4.293l2.784,2.885c0.893-0.67,1.792-1.568,2.466-2.47l-2.881-2.772    C36.682,27.855,37.636,20.586,36.184,16.894z" style="fill: #BE9148;"/>
	</g>
</g>
<metadata><work rdf:about=""><format>image/svg+xml</format><type rdf:resource="http://purl.org/dc/dcmitype/StillImage"/><license rdf:resource="http://creativecommons.org/licenses/by/4.0/"/><attributionname>Carol Liao</attributionname><attributionurl>http://www.toicon.com/icons/fandom_protect</attributionurl></work></metadata></svg>
