<?xml version="1.0" encoding="UTF-8"?>
<!-- Generator: Adobe Illustrator 19.1.0, SVG Export Plug-In . SVG Version: 6.00 Build 0)  -->
<!DOCTYPE svg PUBLIC "-//W3C//DTD SVG 1.1//EN" "http://www.w3.org/Graphics/SVG/1.1/DTD/svg11.dtd">
<svg xmlns="http://www.w3.org/2000/svg" xmlns:xlink="http://www.w3.org/1999/xlink" xmlns:dc="http://purl.org/dc/elements/1.1/" xmlns:cc="http://creativecommons.org/ns#" xmlns:rdf="http://www.w3.org/1999/02/22-rdf-syntax-ns#" version="1.1" id="DESIGNS" x="0px" y="0px" width="64px" height="64px" viewBox="0 0 64 64" style="enable-background:new 0 0 64 64;" xml:space="preserve">
<title property="dc:title">to lick</title><desc property="dc:description">An icon for "lick" from the Fandom series on to [icon]. Downloaded from http://www.toicon.com/icons/fandom_lick by 79.151.191.67 on 2022-03-24. Licensed CC-BY, see http://toicon.com/license/ for details.</desc>
<g>
	<g>
		<path class="fandom_zes" d="M32,7C18.193,7,7,18.193,7,32h50C57,18.193,45.807,7,32,7z" style="fill: #00B3AA;"/>
		<path class="fandom_vijf" d="M32,57c13.807,0,25-11.193,25-25H7C7,45.807,18.193,57,32,57z" style="fill: #018273;"/>
	</g>
	<g>
		<path class="fandom_vier" d="M50,25.356c0,5.556-1.358,8.782-2.96,13.946c-0.9,2.9-1.874,5.465-2.733,7.377    c-0.529,1.178-1.015,2.117-1.409,2.73c-0.36,0.561-0.885,0.985-1.511,1.214c-0.164,0.06-0.434,0.14-0.78,0.235    c-5.18,1.412-10.618,1.51-15.841,0.325c-0.232-0.953-0.502-2.087-0.79-3.338c-0.47-2.037-3.974-17.879-3.147-20.567    c0.926-3.008,2.982-5.25,4.723-6.705C27.525,20.846,29.704,21,32,21c6.594,0,12.253-1.247,14.702-3.028    C48.653,19.642,50,22.004,50,25.356z M43.917,15.424c-1.639-3.696-5.206-6.456-9.532-7.21C34.076,9.244,33.131,10,32,10    c-1.007,0-1.87-0.599-2.266-1.458c-1.687,2.251-3.682,5.746-3.169,9.193C28.274,17.903,30.095,18,32,18    c4.278,0,8.186-0.456,11.192-1.209C43.829,16.631,44.168,15.991,43.917,15.424z" style="fill: #FFC865;"/>
		<path class="fandom_drie" d="M23.975,47.845c0.289,1.251,0.559,2.385,0.79,3.338c-0.458-0.104-0.918-0.201-1.372-0.325    c-0.347-0.094-0.616-0.175-0.78-0.235c-0.626-0.229-1.15-0.652-1.511-1.214c-0.414-0.645-0.93-1.648-1.492-2.915    c-0.914-2.06-1.951-4.826-2.884-7.943C15.227,33.543,14,30.642,14,25.356c0-3.354,1.351-5.712,3.302-7.381    c1.597,1.159,4.557,2.089,8.249,2.598c-1.74,1.455-3.797,3.697-4.723,6.705C20.001,29.966,23.505,45.808,23.975,47.845z     M29.734,8.542c-0.046-0.099-0.079-0.203-0.112-0.308c-4.326,0.754-7.9,3.494-9.539,7.19c-0.252,0.567,0.087,1.208,0.724,1.367    c1.359,0.34,2.91,0.616,4.588,0.82c0.381,0.046,0.775,0.085,1.169,0.124C26.052,14.288,28.047,10.794,29.734,8.542z     M50.628,21.352c-0.317-1.442-0.824-3.012-2.051-3.942c-0.268-0.203-0.564-0.348-0.872-0.463    c-1.047,1.705-4.865,3.099-9.934,3.712C38.149,21.498,38.753,24.117,39,25c0.327,1.169,1.206,1.701,2.236,0.682    c0.955-0.946,1.03-2.55,2.217-3.319c1.618-1.048,2.273,1.617,2.329,2.661c0.093,1.722,0.454,4.298,2.446,4.88    c2.169,0.633,2.537-1.988,2.69-3.497C51.089,24.72,50.992,23.007,50.628,21.352z" style="fill: #BE9148;"/>
		<path class="fandom_een" d="M34.5,7.5c0,1.381-1.119,2.5-2.5,2.5c-1.381,0-2.5-1.119-2.5-2.5S30.619,5,32,5    C33.381,5,34.5,6.119,34.5,7.5z M44.195,46.919c0.037-0.082,0.073-0.155,0.111-0.24c0.836-1.86,1.78-4.34,2.659-7.142    c-9.953,3.753-16.81,4.313-24.425,1.71c0.478,2.352,1.469,6.743,1.486,6.817c2.547,0.62,5.07,0.937,7.668,0.937    C35.58,49,39.64,48.3,44.195,46.919z" style="fill: #FF786E;"/>
		<path class="fandom_veertien" d="M18.474,27.483c0.235,2.882,0.871,5.881,1.646,8.605c0.1,0.351,0.386,0.621,0.741,0.705    C24.25,37.595,27.608,38,31.065,38c3.864,0,7.857-0.509,12.153-1.509c0.358-0.083,0.65-0.356,0.748-0.71    c0.749-2.691,1.353-5.633,1.57-8.455c0.027-0.348-0.316-0.606-0.651-0.507c-9.888,2.924-17.434,2.975-25.745,0.163    C18.801,26.867,18.445,27.126,18.474,27.483z" style="fill: #EFEAE0;"/>
		<path class="fandom_twee" d="M34.226,8.615C33.816,9.433,32.978,10,32,10c-1.381,0-2.5-1.119-2.5-2.5    c0-0.978,0.567-1.816,1.385-2.226C29.807,7.419,32.08,9.694,34.226,8.615z M22.539,41.243c-1.798-0.626-3.808-1.475-5.738-2.447    c0.913,3.015,1.919,5.693,2.809,7.699c0.038,0.086,0.075,0.162,0.112,0.246c1.415,0.522,2.92,0.979,4.303,1.321    C24.009,47.988,23.017,43.596,22.539,41.243z M41.58,12.002c0.97,1.005,1.774,2.152,2.337,3.422    c0.252,0.567-0.087,1.208-0.724,1.367C40.186,17.544,36.278,18,32,18c-1.905,0-3.726-0.097-5.435-0.265    c-0.394-0.039-0.788-0.077-1.169-0.124c-1.678-0.204-3.229-0.48-4.588-0.82c-0.637-0.159-0.976-0.8-0.724-1.367    c0.564-1.272,1.371-2.42,2.346-3.424C18.533,12.912,16,14.362,16,16c0,2.761,7.163,5,16,5s16-2.239,16-5    C48,14.363,45.471,12.914,41.58,12.002z" style="fill: #BE5652;"/>
	</g>
</g>
<metadata><work rdf:about=""><format>image/svg+xml</format><type rdf:resource="http://purl.org/dc/dcmitype/StillImage"/><license rdf:resource="http://creativecommons.org/licenses/by/4.0/"/><attributionname>Carol Liao</attributionname><attributionurl>http://www.toicon.com/icons/fandom_lick</attributionurl></work></metadata></svg>
