<?xml version="1.0" encoding="UTF-8"?>
<!-- Generator: Adobe Illustrator 19.1.0, SVG Export Plug-In . SVG Version: 6.00 Build 0)  -->
<!DOCTYPE svg PUBLIC "-//W3C//DTD SVG 1.1//EN" "http://www.w3.org/Graphics/SVG/1.1/DTD/svg11.dtd">
<svg xmlns="http://www.w3.org/2000/svg" xmlns:xlink="http://www.w3.org/1999/xlink" xmlns:dc="http://purl.org/dc/elements/1.1/" xmlns:cc="http://creativecommons.org/ns#" xmlns:rdf="http://www.w3.org/1999/02/22-rdf-syntax-ns#" version="1.1" id="DESIGNS" x="0px" y="0px" width="64px" height="64px" viewBox="0 0 64 64" style="enable-background:new 0 0 64 64;" xml:space="preserve">
<title property="dc:title">to see</title><desc property="dc:description">An icon for "see" from the Fandom series on to [icon]. Downloaded from http://www.toicon.com/icons/fandom_see by 79.151.191.67 on 2022-03-24. Licensed CC-BY, see http://toicon.com/license/ for details.</desc>
<g>
	<g>
		<path class="fandom_een" d="M32,7C18.193,7,7,18.193,7,32h50C57,18.193,45.807,7,32,7z" style="fill: #FF786E;"/>
		<path class="fandom_twee" d="M32,57c13.807,0,25-11.193,25-25H7C7,45.807,18.193,57,32,57z" style="fill: #BE5652;"/>
	</g>
	<g>
		<path class="fandom_acht" d="M55.559,31.991c-0.229,0.946-0.756,2.728-1.59,3.223c-0.329,0.195-0.747,0.202-1.119,0.179    c-0.236-0.015-0.469-0.072-0.703-0.115c0.047,0.226,0.11,0.451,0.131,0.68c0.033,0.371,0.038,0.789-0.148,1.123    c-0.471,0.847-2.238,1.423-3.177,1.679c-0.215,0.058-0.422-0.099-0.424-0.322c-0.003-0.304,0.036-0.815,0.057-1.191    c-7.638,5.688-17.294,6.199-22.919,0.727c-6.535-6.357-4.999-18.162,2.728-26.111c0.001-0.001,0.003-0.003,0.004-0.004    c0.002-0.002,0.004-0.004,0.006-0.005c1.01-1.037,10.436-9.037,19.708-6.839c2.296-0.911,4.695-0.18,5.073,0.141    c0.683,0.58,1.598,1.507,2.115,2.507c0.909,0.507,1.747,1.289,2.291,1.895c1.016,1.132,1.134,2.735,0.365,4.839    c-0.002,0.006-0.006,0.01-0.008,0.016c2.64,9.383-3.793,17.248-3.793,17.248c0.357-0.032,0.713-0.078,1.071-0.084    C55.449,31.572,55.612,31.774,55.559,31.991z M11.385,55.649c-0.62-0.306-1.204-0.711-1.726-1.218    c-0.521-0.507-0.941-1.079-1.265-1.689c-0.53,0.407-1.191,0.902-1.776,1.231c-3.987,2.234,1.472,7.495,3.584,3.486    C10.517,56.864,10.993,56.189,11.385,55.649z" style="fill: #6BC4D2;"/>
		<path class="fandom_zeven" d="M43.866,4.662L35.897,41.79c-2.606,0.029-5.09-0.529-7.263-1.68c0,0-5.842,4.568-8.586,6.915    c-1.37,1.169-2.693,2.383-3.958,3.497c-1.967,1.774-3.579,3.585-4.708,5.125c-1.282-0.635-2.316-1.641-2.986-2.902    c1.512-1.174,3.279-2.84,4.993-4.849c1.079-1.295,2.256-2.652,3.386-4.054c2.292-2.834,6.673-8.772,6.673-8.772    c-3.213-5.656-2.199-13.569,2.323-20.035c-0.353,0.029-0.92,0.086-1.21,0.091c-0.223,0.004-0.386-0.198-0.333-0.415    c0.229-0.946,0.756-2.728,1.59-3.223c0.329-0.195,0.747-0.202,1.119-0.179c0.23,0.014,0.456,0.071,0.683,0.112    c-0.049-0.233-0.114-0.464-0.135-0.7c-0.033-0.371-0.038-0.789,0.148-1.123c0.472-0.849,2.244-1.425,3.177-1.679    c0.215-0.058,0.422,0.099,0.424,0.322c0.002,0.197-0.048,1.065-0.062,1.392C34.048,7.609,38.77,4.956,43.866,4.662z M9.046,54.925    c-0.594-0.578-1.544-0.564-2.121,0.029s-0.564,1.544,0.029,2.121c0.594,0.578,1.544,0.564,2.121-0.029    C9.653,56.452,9.64,55.502,9.046,54.925z" style="fill: #508D9B;"/>
		
			<ellipse transform="matrix(0.7168 0.6972 -0.6972 0.7168 27.5074 -21.3563)" class="fandom_negentien" cx="40.047" cy="23.188" rx="12.25" ry="16.625" style="fill: #CCCCCC;"/>
		<path class="fandom_veertien" d="M51.639,11.271c4.85,4.717,3.592,13.877-2.81,20.459c-3.61,3.712-8.085,5.81-12.172,6.089    l6.383-29.215C46.35,8.284,49.436,9.128,51.639,11.271z M35.362,41.017c-0.818-0.546-2.239-1.666-3.604-2.629    c-1.453-1.024-3.835-0.952-4.924-0.762c-0.159-0.387-0.454-0.681-0.874-0.833c0.177-1.03,0.226-3.538-0.879-5.016    c-1-1.338-2.16-2.727-2.728-3.53c-0.164-0.231-0.52-0.179-0.617,0.087L21.054,30.2c-0.506,1.715-0.872,3.247,0.42,4.688    c0.143,0.159,0.31,0.332,0.489,0.508c-0.284,0.006-0.572,0.05-0.814,0.193c-0.572,0.339-0.866,1.021-1.106,1.608    c-0.23,0.565-0.405,1.152-0.549,1.744c-0.055,0.225,0.115,0.436,0.347,0.432c0.001,0,3.59-0.142,3.59-0.142    c0.281-0.037,0.526-0.141,0.755-0.274c0.226,0.376,0.195,0.316,0.503,0.5c-0.124,0.23-0.22,0.475-0.249,0.754    c0,0.001-0.043,3.592-0.043,3.593c0.003,0.232,0.218,0.396,0.441,0.335c0.588-0.16,1.17-0.352,1.728-0.597    c0.581-0.255,1.254-0.569,1.577-1.15c0.118-0.213,0.158-0.458,0.167-0.705c0.151,0.143,0.299,0.274,0.437,0.391    c1.477,1.252,2.998,0.844,4.698,0.29l1.846-0.733C35.555,41.532,35.598,41.174,35.362,41.017z M54,35.487    c0.007,0.828-0.658,1.506-1.487,1.513c-0.828,0.007-1.506-0.658-1.513-1.487c-0.007-0.828,0.658-1.506,1.487-1.513    C53.315,33.993,53.993,34.658,54,35.487z M57,7.504c0.001,0.828-0.669,1.501-1.498,1.502S54.001,8.337,54,7.508    c-0.001-0.828,0.669-1.501,1.498-1.502C56.326,6.005,56.999,6.675,57,7.504z M29,11.501c-0.001,0.828-0.673,1.499-1.501,1.499    c-0.828-0.001-1.499-0.673-1.499-1.501c0.001-0.828,0.673-1.499,1.501-1.499C28.33,10.001,29.001,10.673,29,11.501z" style="fill: #EFEAE0;"/>
		<path class="fandom_dertien" d="M53.842,36.157C53.599,36.65,53.1,36.995,52.513,37c-0.828,0.007-1.506-0.658-1.513-1.487    c-0.005-0.587,0.33-1.092,0.819-1.343c-0.1,0.203-0.16,0.429-0.158,0.671c0.007,0.828,0.685,1.494,1.513,1.487    C53.416,36.325,53.64,36.261,53.842,36.157z M56.168,8.338c-0.828,0.001-1.501-0.669-1.502-1.498c0-0.242,0.062-0.467,0.163-0.669    c-0.49,0.247-0.83,0.751-0.829,1.337c0.001,0.828,0.674,1.499,1.502,1.498c0.587-0.001,1.089-0.342,1.335-0.833    C56.635,8.275,56.41,8.338,56.168,8.338z M28.166,12.334c-0.828-0.001-1.499-0.673-1.499-1.501c0-0.242,0.063-0.467,0.165-0.669    c-0.491,0.246-0.831,0.748-0.832,1.335c-0.001,0.828,0.67,1.501,1.499,1.501c0.587,0.001,1.09-0.339,1.337-0.83    C28.633,12.272,28.408,12.334,28.166,12.334z" style="fill: #AA9991;"/>
	</g>
</g>
<metadata><work rdf:about=""><format>image/svg+xml</format><type rdf:resource="http://purl.org/dc/dcmitype/StillImage"/><license rdf:resource="http://creativecommons.org/licenses/by/4.0/"/><attributionname>Carol Liao</attributionname><attributionurl>http://www.toicon.com/icons/fandom_see</attributionurl></work></metadata></svg>
