<?xml version="1.0" encoding="UTF-8"?>
<!-- Generator: Adobe Illustrator 19.1.0, SVG Export Plug-In . SVG Version: 6.00 Build 0)  -->
<!DOCTYPE svg PUBLIC "-//W3C//DTD SVG 1.1//EN" "http://www.w3.org/Graphics/SVG/1.1/DTD/svg11.dtd">
<svg xmlns="http://www.w3.org/2000/svg" xmlns:xlink="http://www.w3.org/1999/xlink" xmlns:dc="http://purl.org/dc/elements/1.1/" xmlns:cc="http://creativecommons.org/ns#" xmlns:rdf="http://www.w3.org/1999/02/22-rdf-syntax-ns#" version="1.1" id="DESIGNS" x="0px" y="0px" width="64px" height="64px" viewBox="0 0 64 64" style="enable-background:new 0 0 64 64;" xml:space="preserve">
<title property="dc:title">to guide</title><desc property="dc:description">An icon for "guide" from the Fandom series on to [icon]. Downloaded from http://www.toicon.com/icons/fandom_guide by 79.151.191.67 on 2022-03-24. Licensed CC-BY, see http://toicon.com/license/ for details.</desc>
<g>
	<g>
		<path class="fandom_tien" d="M32,7C18.193,7,7,18.193,7,32h50C57,18.193,45.807,7,32,7z" style="fill: #8579A3;"/>
		<path class="fandom_negen" d="M32,57c13.807,0,25-11.193,25-25H7C7,45.807,18.193,57,32,57z" style="fill: #685683;"/>
	</g>
	<g>
		<path class="fandom_veertien" d="M53.567,36.696c1.058-0.266,2.944,0.075,3.434,1.052c2.124,0.444,1.269,5.364,0.26,7.009    c-1.624,2.649-5.176,3.145-7.706,2.049c-0.984-0.426-1.915-1.17-3.015-1.263c-1.331-0.113-2.195,1.284-3.585,1.06    c-2.42-0.389-3.947-3.917-4.582-5.951c-0.396-1.269-0.413-2.545-0.514-3.859c-0.113-1.473-0.545-2.669-1.493-3.813    c-3.01-3.634-7.808-7.714-7.808-7.714c-0.92-0.804-3.243-2.48-3.145-2.389c-2.107,0.625-4.55,0.595-6.581,0.024    c-0.334,2.194-0.633,2.644-4.579,12.841c-0.387,1.001-0.118,1.493,0.444,1.665c0.645,0.216,1.823,0.008,2.396,0.029    c0,0-0.811,3.638-0.819,3.804c-0.175,3.35,3.823,1.65,5.739,1.479c3.576-0.319,5.442,1.51,8.023,3.815    c3.267,2.894,2.716,3.276,4.165,5.702c1.795,3.007,7.291,5.468,10.688,3.023c-0.183-0.05,4.399-2.298,4.699-2.404    c4.006-1.422,5.862-1.02,8.027-1.351c3.152-0.482,4.63-2.816,5.145-5.525C64.201,38.399,57.902,33.482,53.567,36.696z     M47.51,10.231c-0.298,0.344-0.831-0.117-0.533-0.461c1.629-1.616-2.348-2.81-4.285-0.016c-1.44,2.076-2.065,5.986-5.271,5.972    c-2.82-0.013-3.979-3.332-5.304-5.261c-0.862-1.256-1.844-2.149-3.242-0.998c-1.046,0.861-1.664,2.157-2.235,3.356    c0.394,0.394,0.777,0.819,1.042,1.313c0.537,1,4.249-0.867,5.48,4.683c0.583,2.626,1.454,6.489,4.777,6.657    c1.924,0.411,4.351-1.023,4.196-5.746c-0.038-1.147-0.352-2.481,0.11-3.579c0.634-1.504,3.051-2.214,4.394,0.987    c0.415,0.988-0.316,1.163-0.665,0.21c-0.704-1.926-3.121-2.54-2.848,0.432c0.096,1.047,0.291,2.032,0.272,3.094    c-0.088,4.983-3.186,6.665-5.515,6.43c-5.122,0.134-6.138-5.636-7.603-9.332c-0.756-0.846-2.073-0.771-3.112-0.644    c-0.369,0.548-2.068,2.506-2.068,2.506c-1.722,0.698-4.198,0.694-6.198-0.09c-0.116-0.708-0.548-0.946-1.232-0.982    c-0.538-0.028-4.816-0.263-5.323-0.459c-0.135-0.052-1.163-0.523-0.96-0.779c-0.002,0.03,8.764-0.607,8.794-0.609    c1.463,0.862,2.05,1.001,0.065-0.482c-3.497-2.613-3.504-6.203-3.038-8.461c0.336,0.067,0.696,0.021,1.017-0.159    c-0.133,1.087-0.41,2.114,0.086,3.169c0.596,1.269,1.747,1.23,2.698,0.416c0.982-0.842,1.907-1.28,3.158-0.635    c0.419,0.216,0.343,0.021,0.569-0.335c3.138-4.958,6.42-5.661,9.476-0.658c0.687,1.125,1.188,2.468,2.035,3.485    c1.656,1.986,3.24-0.531,4.051-1.931C44.046,4.857,47.839,7.2,48.109,8.5C48.266,9.328,47.819,9.889,47.51,10.231z" style="fill: #EFEAE0;"/>
		<path class="fandom_een" d="M21.589,20.325c-0.942-0.062-1.875-0.262-2.697-0.586c0.081,0.628,0.007,2.496-0.077,3.159    c0.85,0.241,1.749,0.37,2.651,0.416C21.695,22.351,21.738,21.348,21.589,20.325z" style="fill: #FF786E;"/>
		<path class="fandom_twee" d="M25.414,22.879c-0.937-0.875-0.883-1.974-0.315-3.047c-1.038,0.421-2.283,0.566-3.512,0.484    c0.15,1.03,0.108,2.039-0.124,3.007C22.812,23.391,24.173,23.247,25.414,22.879z" style="fill: #BE5652;"/>
		<path class="fandom_negentien" d="M49.587,52.856c-1.607,0.57-4.707,2.402-4.71,2.401c-12.051-3.232-7.188-16.126-16.318-29.99    c0.472,0.413,0.933,0.837,1.393,1.249c2.248,2.013,4.487,4.138,6.415,6.464c0.948,1.144,1.379,2.339,1.493,3.813    c0.101,1.313,0.119,2.589,0.514,3.859c0.634,2.035,2.162,5.562,4.582,5.951c1.39,0.224,2.253-1.173,3.585-1.06    c1.099,0.093,2.031,0.836,3.015,1.263c2.53,1.096,6.082,0.6,7.706-2.049c1.646,1.319,3.809,1.555,5.498,1.222    c-0.515,2.709-1.993,5.043-5.145,5.525C55.449,51.836,53.593,51.434,49.587,52.856z M30.037,46.535c0,0-2.132-23.778-5.543-20.13    l-1.638,16.28C25.933,42.695,27.76,44.503,30.037,46.535z M14.698,37.409c0.645,0.216,1.823,0.008,2.396,0.029l2.004-8.771    L14.698,37.409z M55.567,41.257c-0.808-0.638-0.612-3.974,1.441-3.496c-0.468-0.984-2.386-1.334-3.448-1.064    C51.98,38.05,53.941,39.974,55.567,41.257z" style="fill: #CCCCCC;"/>
		<path class="fandom_zestien" d="M20.245,16.432c-3.497-2.613-3.504-6.203-3.038-8.461c-0.176-0.035-0.341-0.101-0.489-0.192    c-2.912,5.319,2.067,7.274,1.114,7.703c-0.583,0.262-3.642,1.599-5.839,1.768c-0.469,0.05-0.616,0.161-0.607,0.292l8.794-0.628    C21.643,17.775,22.23,17.914,20.245,16.432z" style="fill: #4D4D4D;"/>
		<path class="fandom_vier" d="M18.84,7.168c0.289-0.575,0.18-1.277-0.276-1.732c-0.455-0.455-1.158-0.564-1.733-0.276    C16.186,6.447,17.526,7.811,18.84,7.168z" style="fill: #FFC865;"/>
		<path class="fandom_drie" d="M16.832,5.16C16.341,5.407,16,5.91,16,6.498C16,7.327,16.673,8,17.502,8    c0.588,0,1.091-0.341,1.338-0.832C17.55,7.816,16.184,6.449,16.832,5.16z" style="fill: #BE9148;"/>
	</g>
</g>
<metadata><work rdf:about=""><format>image/svg+xml</format><type rdf:resource="http://purl.org/dc/dcmitype/StillImage"/><license rdf:resource="http://creativecommons.org/licenses/by/4.0/"/><attributionname>Carol Liao</attributionname><attributionurl>http://www.toicon.com/icons/fandom_guide</attributionurl></work></metadata></svg>
