<?xml version="1.0" encoding="UTF-8"?>
<!-- Generator: Adobe Illustrator 19.1.0, SVG Export Plug-In . SVG Version: 6.00 Build 0)  -->
<!DOCTYPE svg PUBLIC "-//W3C//DTD SVG 1.1//EN" "http://www.w3.org/Graphics/SVG/1.1/DTD/svg11.dtd">
<svg xmlns="http://www.w3.org/2000/svg" xmlns:xlink="http://www.w3.org/1999/xlink" xmlns:dc="http://purl.org/dc/elements/1.1/" xmlns:cc="http://creativecommons.org/ns#" xmlns:rdf="http://www.w3.org/1999/02/22-rdf-syntax-ns#" version="1.1" id="DESIGNS" x="0px" y="0px" width="64px" height="64px" viewBox="0 0 64 64" style="enable-background:new 0 0 64 64;" xml:space="preserve">
<title property="dc:title">to direct</title><desc property="dc:description">An icon for "direct" from the Fandom series on to [icon]. Downloaded from http://www.toicon.com/icons/fandom_direct by 79.151.191.67 on 2022-03-24. Licensed CC-BY, see http://toicon.com/license/ for details.</desc>
<g>
	<g>
		<path class="fandom_zes" d="M32,7C18.193,7,7,18.193,7,32h50C57,18.193,45.807,7,32,7z" style="fill: #00B3AA;"/>
		<path class="fandom_vijf" d="M32,57c13.807,0,25-11.193,25-25H7C7,45.807,18.193,57,32,57z" style="fill: #018273;"/>
	</g>
	<g>
		<path class="fandom_dertien" d="M39.277,21.299c-1.145-0.671-2.531-0.854-3.771-0.365c-4.783,1.885-20.748,4.785-22.087-9.523    c-0.002,0-4.713-0.411-7.188,2.619C4.681,15.927,4,18.158,4,20.511c0,5.975,5.563,6.748,10,6.415V45c0,1.105,0.895,2,2,2h21    c1.105,0,2-0.895,2-2V27c3.577,0.767,7.378-1.463,9.11-4.571l0.248-0.524C46.021,22.346,41.872,22.819,39.277,21.299z" style="fill: #AA9991;"/>
		<path class="fandom_veertien" d="M28,33c-4.418,0-8,3.582-8,8v6h17c1.105,0,2-0.895,2-2V33H28z" style="fill: #EFEAE0;"/>
		<path class="fandom_drie" d="M51.965,33.468c0.072,0.337-0.086,0.722-0.489,0.832l-22.632,6.204    c-0.423,0.116-0.759-0.177-0.829-0.527L28,51.649c0,0.907,0.866,1.556,1.723,1.291l21.333-6.598    C51.617,46.169,52,45.645,52,45.052L51.965,33.468z" style="fill: #BE9148;"/>
		<path class="fandom_veertien" d="M42.29,11.368c-0.297-0.032-3.998,0.089-3.89,0.481c-0.297-1.083-0.899-2.062-1.68-2.884    c-2.695-2.834-6.984-4.099-10.801-3.955c-3.927,0.149-7.934,1.922-10.848,4.54c-0.164,0.148-1.5,1.833-1.652,1.86    c1.338,14.308,17.304,11.408,22.087,9.523c1.24-0.489,2.626-0.305,3.771,0.365c2.595,1.52,6.744,1.047,9.081,0.605    C50.355,17.497,47.401,11.915,42.29,11.368z" style="fill: #EFEAE0;"/>
		<path class="fandom_vier" d="M45,45.5c0,0.828-0.672,1.5-1.5,1.5S42,46.328,42,45.5s0.672-1.5,1.5-1.5S45,44.672,45,45.5z     M31.5,47c-0.828,0-1.5,0.672-1.5,1.5s0.672,1.5,1.5,1.5s1.5-0.672,1.5-1.5S32.328,47,31.5,47z M47.5,38    c-1.381,0-2.5,1.119-2.5,2.5s1.119,2.5,2.5,2.5s2.5-1.119,2.5-2.5S48.881,38,47.5,38z M36.5,41c-1.381,0-2.5,1.119-2.5,2.5    s1.119,2.5,2.5,2.5s2.5-1.119,2.5-2.5S37.881,41,36.5,41z M28.844,40.504L51.476,34.3c0.686-0.188,0.682-1.174-0.006-1.356    l-10.796-2.856c-0.845-0.224-1.745-0.014-2.409,0.561L28.237,39.34C27.697,39.808,28.158,40.692,28.844,40.504z" style="fill: #FFC865;"/>
	</g>
</g>
<metadata><work rdf:about=""><format>image/svg+xml</format><type rdf:resource="http://purl.org/dc/dcmitype/StillImage"/><license rdf:resource="http://creativecommons.org/licenses/by/4.0/"/><attributionname>Carol Liao</attributionname><attributionurl>http://www.toicon.com/icons/fandom_direct</attributionurl></work></metadata></svg>
