<?xml version="1.0" encoding="UTF-8"?>
<!-- Generator: Adobe Illustrator 19.1.0, SVG Export Plug-In . SVG Version: 6.00 Build 0)  -->
<!DOCTYPE svg PUBLIC "-//W3C//DTD SVG 1.1//EN" "http://www.w3.org/Graphics/SVG/1.1/DTD/svg11.dtd">
<svg xmlns="http://www.w3.org/2000/svg" xmlns:xlink="http://www.w3.org/1999/xlink" xmlns:dc="http://purl.org/dc/elements/1.1/" xmlns:cc="http://creativecommons.org/ns#" xmlns:rdf="http://www.w3.org/1999/02/22-rdf-syntax-ns#" version="1.1" id="DESIGNS" x="0px" y="0px" width="64px" height="64px" viewBox="0 0 64 64" style="enable-background:new 0 0 64 64;" xml:space="preserve">
<title property="dc:title">to sail</title><desc property="dc:description">An icon for "sail" from the Fandom series on to [icon]. Downloaded from http://www.toicon.com/icons/fandom_sail by 79.151.191.67 on 2022-03-24. Licensed CC-BY, see http://toicon.com/license/ for details.</desc>
<g>
	<g>
		<path class="fandom_tien" d="M32,7C18.193,7,7,18.193,7,32h50C57,18.193,45.807,7,32,7z" style="fill: #8579A3;"/>
		<path class="fandom_negen" d="M32,57c13.807,0,25-11.193,25-25H7C7,45.807,18.193,57,32,57z" style="fill: #685683;"/>
	</g>
	<g>
		<path class="fandom_elf" d="M28.983,9.316c-0.103-0.542,0.255-1.065,0.798-1.167c0.545-0.102,1.065,0.255,1.167,0.798    c0.029,0.156,2.614,16.263,0.471,33.105l-1.281,0.211c-0.447,0.074-0.852-0.649-0.917-0.771    C31.219,25.182,29.011,9.467,28.983,9.316z M24.154,40.667h-1.665c1.326-11.891-0.484-21.76-0.57-22.217    c-0.102-0.542-0.624-0.898-1.167-0.798c-0.543,0.102-0.9,0.625-0.798,1.167c0.02,0.11,1.852,10.118,0.52,21.847h-1.049    c-0.297,0-0.57,0.159-0.71,0.421c-1.322,2.472-0.758,9.248,1.278,10.579c0.741,0.485,3.437,0.861,6.837,1.016    C24.724,49.617,24.256,43.484,24.154,40.667z M41.704,37.02l2.015,0.036c2.737-18.876-0.704-36.071-0.737-36.245    c-0.105-0.542-0.625-0.902-1.172-0.791c-0.542,0.105-0.896,0.63-0.791,1.172C41.051,1.364,44.456,18.394,41.704,37.02z" style="fill: #4B322A;"/>
		<path class="fandom_twaalf" d="M25.072,38h-7.591c-0.335,0-0.567-0.348-0.45-0.675l0.204-0.569    c0.33-0.918,0.306-1.934-0.066-2.834l-0.093-0.224C16.94,33.368,17.173,33,17.518,33h7.117c0.145,0,0.283,0.069,0.374,0.186    l0.183,0.237c0.958,1.239,0.292,4.332,0.292,4.332C25.398,37.907,25.241,38,25.072,38z M25.485,30.756    c0,0,0.666-3.094-0.292-4.332l-0.183-0.237C24.918,26.069,24.78,26,24.635,26h-7.117c-0.345,0-0.578,0.368-0.441,0.698    l0.093,0.224c0.372,0.901,0.396,1.916,0.066,2.834l-0.204,0.569C16.913,30.652,17.146,31,17.481,31h7.591    C25.241,31,25.398,30.907,25.485,30.756z M25.485,23.756c0,0,0.666-3.094-0.292-4.332l-0.183-0.237    C24.918,19.069,24.78,19,24.635,19h-7.117c-0.345,0-0.578,0.368-0.441,0.698l0.093,0.224c0.372,0.901,0.396,1.916,0.066,2.834    l-0.204,0.569C16.913,23.652,17.146,24,17.481,24h7.591C25.241,24,25.398,23.907,25.485,23.756z M60.767,26.357    c-0.355-0.423-0.986-0.478-1.409-0.123l-10.924,9.298l-2.851,2.135L45.5,37.083l-6.777-0.122    c-0.119,0.019-0.234,0.038-0.353,0.058l-4.205,1.494c-0.399,0.142-0.665,0.519-0.665,0.942v1.404c0,0.489-0.354,0.907-0.837,0.987    l-2.524,0.417c-0.487,0.08-0.93-0.796-0.93-0.796c0-0.442-0.358-0.8-0.8-0.8h-4.255c0.102,2.819,0.57,8.959,2.68,12.022    c6.532,0.286,15.6-0.245,18.542-2.397c4.068-2.976,5.719-11.536,5.998-13.152c0.019-0.108,0.298-1.162,0.305-1.197l8.992-8.2    C61.067,27.385,61.114,26.771,60.767,26.357z" style="fill: #644638;"/>
		<path class="fandom_dertien" d="M35.556,17H23.748c-0.521,0-0.883-0.557-0.7-1.08l0.318-0.91c0.513-1.469,0.476-3.094-0.102-4.535    l-0.144-0.359C22.907,9.588,23.269,9,23.806,9h11.07c0.226,0,0.44,0.11,0.582,0.298l0.285,0.38    c1.49,1.982,0.455,6.932,0.455,6.932C36.063,16.852,35.82,17,35.556,17z M36.198,26.61c0,0,1.035-4.95-0.455-6.932l-0.285-0.38    C35.316,19.11,35.102,19,34.876,19h-11.07c-0.537,0-0.899,0.588-0.686,1.116l0.144,0.359c0.579,1.441,0.616,3.066,0.102,4.535    l-0.318,0.91c-0.183,0.523,0.179,1.08,0.7,1.08h11.809C35.82,27,36.063,26.852,36.198,26.61z M36.198,36.61    c0,0,1.035-4.95-0.455-6.932l-0.285-0.38C35.316,29.11,35.102,29,34.876,29h-11.07c-0.537,0-0.899,0.588-0.686,1.116l0.144,0.359    c0.579,1.441,0.616,3.066,0.102,4.535l-0.318,0.91c-0.183,0.523,0.179,1.08,0.7,1.08h11.809C35.82,37,36.063,36.852,36.198,36.61z    " style="fill: #AA9991;"/>
		<g>
			<g>
				<path class="fandom_veertien" d="M34.962,24h15.182c0.338,0,0.652-0.185,0.825-0.488c0,0,1.331-6.188-0.585-8.665l-0.367-0.474      C49.835,14.137,49.56,14,49.269,14H35.036c-0.69,0-1.155,0.735-0.883,1.395l0.185,0.449c0.744,1.801,0.791,3.832,0.132,5.668      l-0.409,1.138C33.827,23.303,34.291,24,34.962,24z" style="fill: #EFEAE0;"/>
				<path class="fandom_veertien" d="M34.962,12h15.182c0.338,0,0.652-0.185,0.825-0.488c0,0,1.331-6.188-0.585-8.665l-0.367-0.474      C49.835,2.137,49.56,2,49.269,2H35.036c-0.69,0-1.155,0.735-0.883,1.395l0.185,0.449c0.744,1.801,0.791,3.832,0.132,5.668      l-0.409,1.138C33.827,11.303,34.291,12,34.962,12z" style="fill: #EFEAE0;"/>
				<path class="fandom_veertien" d="M34.962,36h12.847l3.514-2.927c0.19-2.012,0.193-4.763-0.939-6.225l-0.367-0.474      C49.835,26.137,49.56,26,49.269,26H35.036c-0.69,0-1.155,0.735-0.883,1.395l0.185,0.449c0.744,1.801,0.791,3.832,0.132,5.668      l-0.409,1.138C33.827,35.303,34.291,36,34.962,36z" style="fill: #EFEAE0;"/>
			</g>
			<g>
				<path class="fandom_veertien" d="M34.962,24h15.182c0.338,0,0.652-0.185,0.825-0.488c0,0,1.331-6.188-0.585-8.665l-0.367-0.474      C49.835,14.137,49.56,14,49.269,14H35.036c-0.69,0-1.155,0.735-0.883,1.395l0.185,0.449c0.744,1.801,0.791,3.832,0.132,5.668      l-0.409,1.138C33.827,23.303,34.291,24,34.962,24z" style="fill: #EFEAE0;"/>
				<path class="fandom_veertien" d="M34.962,12h15.182c0.338,0,0.652-0.185,0.825-0.488c0,0,1.331-6.188-0.585-8.665l-0.367-0.474      C49.835,2.137,49.56,2,49.269,2H35.036c-0.69,0-1.155,0.735-0.883,1.395l0.185,0.449c0.744,1.801,0.791,3.832,0.132,5.668      l-0.409,1.138C33.827,11.303,34.291,12,34.962,12z" style="fill: #EFEAE0;"/>
				<path class="fandom_veertien" d="M34.962,36h12.847l3.514-2.927c0.19-2.012,0.193-4.763-0.939-6.225l-0.367-0.474      C49.835,26.137,49.56,26,49.269,26H35.036c-0.69,0-1.155,0.735-0.883,1.395l0.185,0.449c0.744,1.801,0.791,3.832,0.132,5.668      l-0.409,1.138C33.827,35.303,34.291,36,34.962,36z" style="fill: #EFEAE0;"/>
			</g>
		</g>
	</g>
</g>
<metadata><work rdf:about=""><format>image/svg+xml</format><type rdf:resource="http://purl.org/dc/dcmitype/StillImage"/><license rdf:resource="http://creativecommons.org/licenses/by/4.0/"/><attributionname>Carol Liao</attributionname><attributionurl>http://www.toicon.com/icons/fandom_sail</attributionurl></work></metadata></svg>
