<?xml version="1.0" encoding="UTF-8"?>
<!-- Generator: Adobe Illustrator 19.1.0, SVG Export Plug-In . SVG Version: 6.00 Build 0)  -->
<!DOCTYPE svg PUBLIC "-//W3C//DTD SVG 1.1//EN" "http://www.w3.org/Graphics/SVG/1.1/DTD/svg11.dtd">
<svg xmlns="http://www.w3.org/2000/svg" xmlns:xlink="http://www.w3.org/1999/xlink" xmlns:dc="http://purl.org/dc/elements/1.1/" xmlns:cc="http://creativecommons.org/ns#" xmlns:rdf="http://www.w3.org/1999/02/22-rdf-syntax-ns#" version="1.1" id="DESIGNS" x="0px" y="0px" width="64px" height="64px" viewBox="0 0 64 64" style="enable-background:new 0 0 64 64;" xml:space="preserve">
<title property="dc:title">to grow</title><desc property="dc:description">An icon for "grow" from the Fandom series on to [icon]. Downloaded from http://www.toicon.com/icons/fandom_grow by 79.151.191.67 on 2022-03-24. Licensed CC-BY, see http://toicon.com/license/ for details.</desc>
<g>
	<g>
		<path class="fandom_een" d="M32,7C18.193,7,7,18.193,7,32h50C57,18.193,45.807,7,32,7z" style="fill: #FF786E;"/>
		<path class="fandom_twee" d="M32,57c13.807,0,25-11.193,25-25H7C7,45.807,18.193,57,32,57z" style="fill: #BE5652;"/>
	</g>
	<g>
		<path class="fandom_vier" d="M50.224,42.712c-2.119-0.204-4.276,0.183-6.318,0.725c-1.574-3.831-3.241-6.397-6.406-9.781    c0,0,0.415-3.622,0.458-6.34c0.458-0.566,0.709-1.178,0.709-1.816c0-2.911-5.205-5.271-11.625-5.271s-11.625,2.36-11.625,5.271    c0,0.87,0.466,1.691,1.289,2.415c0.297,1.316,0.521,2.656,0.661,3.996c0.426,4.08-0.571,4.34-1.151,7.251    c-0.423,2.121-0.798,4.593-0.216,6.713c0.875,3.187,6.542,2.292,8.667,4.417c12.336,12.336,24.902,9.188,29.408,5.323    C58.093,52.167,57.268,43.39,50.224,42.712z" style="fill: #FFC865;"/>
		<path class="fandom_drie" d="M54.074,55.615c-2.804,2.405-6.401,3.29-10.066,3.382c0,0,16.627-8.16,0.218-13.49    c-3.981,1.76-4.952,5.69-5.003,5.91c-0.302,1.29-2.252,0.843-1.947-0.457c0.011-0.046,0.686-2.494,2.735-4.744    c-0.659-1.066-2.997-4.835-4.011-6.277c-1.188-1.688-2.625-2.562-4.875-4.125c-1.604-1.114-1.906-4.92-1.992-7.13    c-0.655,0.056-1.352,0.088-2.091,0.088c-6.35,0-9.625-2.293-9.625-3.271s3.275-3.271,9.625-3.271c6.35,0,9.625,2.293,9.625,3.271    c0,0.058-0.7,6.421-0.702,6.571c-0.032,2.674,2.91,4.651,4.62,7.79c0.743,1.363,1.315,2.839,2.141,4.158    c0.37-0.213,0.762-0.41,1.179-0.586c0,0,3.361-1.005,6.32-0.72C57.191,43.382,58.206,52.07,54.074,55.615z M21.614,30.162    c-2.099-0.503-3.818-1.29-4.908-2.247c0.297,1.316,0.521,2.656,0.661,3.996c0.103,0.984,0.182,2.006,0.028,2.989    c-0.224,1.433-0.892,2.823-1.179,4.262c-0.423,2.121-0.798,4.593-0.216,6.713c0.641,2.336,3.849,2.483,6.356,3.23    C20.784,42.982,20.649,36.483,21.614,30.162z" style="fill: #BE9148;"/>
		<path class="fandom_twaalf" d="M32.685,25.755c-1.137,0.344-2.248-0.035-3.385-0.01c-0.895-0.403-1.891-0.443-2.825-0.135    c-1.432-1.284-2.516-0.03-3.516-0.001c-0.887-0.115-2.388-0.192-2.706,0.871c-0.515,0.239-0.736,0.023-1.142,0.664    c1.571,0.845,4.222,1.627,7.93,1.627c3.42,0,5.939-0.666,7.544-1.432C34.63,26.405,33.725,25.44,32.685,25.755z" style="fill: #644638;"/>
		<path class="fandom_zes" d="M41.339,11.341c-2.829,2.716-6.274,4.503-10.247,5.25c0.043-0.267,0.077-0.533,0.101-0.799    c1.778-2.278,3.791-5.818,8.917-4.921C40.632,10.962,41.025,10.959,41.339,11.341z M17.817,16.728    c-0.211,0.041-0.371,0.151-0.503,0.283c3.216,1.061,7.179,2.494,10.549,2.701c0.089-0.179,0.182-0.361,0.28-0.547    C24.775,14.997,21.802,15.962,17.817,16.728z M29.194,15.58c0.255-3.066-0.99-5.921-2.478-7.027    c-1.067-0.795,0.136-2.391,1.193-1.605c1.879,1.397,3.201,4.201,3.323,7.297c1.243-4.48,0.136-7.992-2.504-10.502l-3.646-3.465    c-0.614-0.583-1.629-0.188-1.687,0.656l-0.321,4.696C22.749,10.395,25.216,13.257,29.194,15.58z" style="fill: #00B3AA;"/>
		<path class="fandom_vijf" d="M41.349,11.332c-2.831,2.721-6.28,4.511-10.257,5.259c0.642-3.96-0.836-7.899-3.183-9.644    c-1.057-0.785-2.261,0.811-1.193,1.605c1.628,1.21,3.974,5.485,1.146,11.16c-3.376-0.207-7.347-1.645-10.567-2.707    c-0.386,0.391-0.411,1.076,0.074,1.476c2.149,1.77,4.987,4.872,9.78,2.784c-1.387,3.327-1.108,4.934-1.064,5.135    c0.274,1.252,2.168,0.887,1.959-0.4c-0.347-2.195,2.236-6.003,2.851-8.46c4.792-0.139,8.013,0.448,10.591-5.155    C41.656,12.019,41.581,11.615,41.349,11.332z" style="fill: #018273;"/>
	</g>
</g>
<metadata><work rdf:about=""><format>image/svg+xml</format><type rdf:resource="http://purl.org/dc/dcmitype/StillImage"/><license rdf:resource="http://creativecommons.org/licenses/by/4.0/"/><attributionname>Carol Liao</attributionname><attributionurl>http://www.toicon.com/icons/fandom_grow</attributionurl></work></metadata></svg>
