<?xml version="1.0" encoding="UTF-8"?>
<!-- Generator: Adobe Illustrator 19.1.0, SVG Export Plug-In . SVG Version: 6.00 Build 0)  -->
<!DOCTYPE svg PUBLIC "-//W3C//DTD SVG 1.1//EN" "http://www.w3.org/Graphics/SVG/1.1/DTD/svg11.dtd">
<svg xmlns="http://www.w3.org/2000/svg" xmlns:xlink="http://www.w3.org/1999/xlink" xmlns:dc="http://purl.org/dc/elements/1.1/" xmlns:cc="http://creativecommons.org/ns#" xmlns:rdf="http://www.w3.org/1999/02/22-rdf-syntax-ns#" version="1.1" x="0px" y="0px" width="64px" height="64px" viewBox="0 0 64 64" style="enable-background:new 0 0 64 64;" xml:space="preserve">
<title property="dc:title">to pucker</title><desc property="dc:description">An icon for "pucker" from the Fandom series on to [icon]. Downloaded from http://www.toicon.com/icons/fandom_pucker by 79.151.191.67 on 2022-03-24. Licensed CC-BY, see http://toicon.com/license/ for details.</desc>
<g id="LABELS">
</g>
<g id="DESIGNS">
	<g>
		<g>
			<path class="fandom_tien" d="M32,7C18.193,7,7,18.193,7,32h50C57,18.193,45.807,7,32,7z" style="fill: #8579A3;"/>
			<path class="fandom_negen" d="M32,57c13.807,0,25-11.193,25-25H7C7,45.807,18.193,57,32,57z" style="fill: #685683;"/>
		</g>
		<g>
			<path class="fandom_zes" d="M40.164,41.833c-0.008,0.01,2.132,1.985,3.475,2.234c2.184,0.404,1.302,3.345-0.794,2.879     c-1.83-0.407-3.393-1.599-4.767-2.965c0.257,1.021,0.619,1.981,1.146,2.816c1.03,1.63-1.553,3.127-2.577,1.507     c-0.915-1.448-1.433-3.192-1.73-5.023c-1.21,0.884-2.544,1.671-4.029,1.736c-2.301,0.101-2.301-2.899,0-2.985     c0.735-0.028,1.522-0.488,2.256-1.041c0.781-0.159,2.233-1.084,2.271-1.115c1.086-0.892,1.873-2.095,2.613-3.294     c3.271-5.295,6.17-10.809,9.067-16.318l0.442-0.893c0.428-0.866-0.489-1.745-1.356-1.32c-1.928,0.947-4.083,1.428-6.23,1.408     c-0.956-0.009-1.91-0.107-2.842-0.325c-0.598-0.14-1.285-0.275-1.796-0.016c-0.312,0.148-0.511,0.548-0.511,0.548     c-0.829-2.654,0.614-4.917,0.614-4.917c-1.051-0.854-1.083-3.676-0.894-6.086c0.317-0.051,0.655-0.015,0.956,0.105     c0.509,0.203,0.928,0.576,1.335,0.942c0,0,0.338-1.353,0.492-1.944c0.048-0.186,0.102-0.381,0.235-0.52     C37.707,7.073,37.964,6.991,38.205,7c1.501,0.059,2.837,0.509,4.153,1.104c1.36,0.615,3.525,0.973,5.347,1.009     c1.711,0.033,3.659-0.119,4.877,1.084C53.314,10.919,54,11.933,54,13c0,1.062-0.687,2.02-1,3     c-1.099,3.441-2.308,6.929-3.901,10.171c-0.794,1.617-1.706,3.17-2.644,4.709c5.31-1.234,9.266-0.866,12.553,1.582     c0.508,0.378,1.093,0.947,1.498,1.572c-5.2,1.909-16.683,1.469-16.683,1.469l-1.884,3.208     C41.418,39.795,40.925,40.904,40.164,41.833z M29.496,31.571c-0.921-0.569-1.901-1.071-2.599-1.495     c-3.497-2.126-7.34-5.177-11.603-4.782c-0.519,0.048-1.65,0.475-2.122,0.711c3.225,2.998,8.823,7.919,13.105,10.181     C28.771,33.983,29.496,31.571,29.496,31.571z" style="fill: #00B3AA;"/>
			<path class="fandom_dertien" d="M37.109,19.134c-0.598-0.14-1.259-0.313-1.796-0.016c-0.861,0.476-0.766,1.714-0.649,2.69     c0.412,3.439-0.4,6.895-1.206,10.263c-0.282,1.178-0.57,2.374-1.158,3.433c-0.651,1.174-1.655,2.154-2.111,3.416     c-0.104,0.289-0.178,0.601-0.117,0.901c0.11,0.54,0.628,0.905,1.15,1.081c1.38,0.466,2.941-0.032,4.087-0.932     c0.038-0.03,0.069-0.067,0.106-0.097c1.91-6.001,3.711-15.677,4.536-20.416C38.995,19.45,38.041,19.352,37.109,19.134z" style="fill: #AA9991;"/>
			<path class="fandom_negentien" d="M46.181,18.051c-1.928,0.947-4.083,1.428-6.23,1.408c-0.825,4.739-2.625,14.415-4.536,20.416     c1.087-0.892,1.873-2.095,2.613-3.294c3.27-5.295,6.17-10.809,9.067-16.318l0.442-0.893     C47.965,18.505,47.048,17.625,46.181,18.051z" style="fill: #CCCCCC;"/>
			<path class="fandom_vijf" d="M60.165,36.816c-1.084,0.733-2.393,1.049-3.674,1.319c-0.845,0.178-1.696,0.321-2.549,0.453     c2.08,1.26,4.057,2.808,4.057,4.616c0,1.92-1.059,1.737-3.723-0.214c-0.614-0.449-1.527,0.322-1.239,1.028     s-0.678,1.29-1.285,0.834l-2.522-1.894c-0.405-0.304-0.987-0.169-1.217,0.282s-1.126,0.61-1.445,0.041l-2.252-4.021     c-0.679-0.006-1.374-0.034-1.991-0.313c-0.136-0.062-0.263-0.146-0.386-0.235l1.884-3.208c0,0,11.483,0.44,16.683-1.469     C61.122,34.984,61.188,36.125,60.165,36.816z M34.802,19.672c-0.28,0.59-0.223,1.431-0.138,2.137     c0.412,3.439-0.4,6.895-1.206,10.263c-0.282,1.178-0.57,2.374-1.158,3.433c-0.651,1.174-1.655,2.154-2.111,3.416     c-0.065,0.181-0.104,0.371-0.12,0.562c-0.125-0.04-0.257-0.08-0.403-0.122c-0.31-0.088-0.642-0.183-0.948-0.084     c-0.657,0.211-1.097,1.908-1.149,1.999c0.463,1.394,0.762,2.842,0.839,4.295c0.103,1.923-2.883,1.911-2.985,0     c-0.049-0.923-0.519-2.752-0.532-2.75c-0.223,0.019-0.446,0.011-0.668,0.002c-1.422,1.323-2.695,2.829-3.653,4.462     c-0.973,1.658-3.552,0.154-2.577-1.507c0.784-1.336,1.746-2.577,2.814-3.726c-0.839,0.424-1.621,0.943-2.294,1.563     c-1.411,1.301-3.526-0.806-2.111-2.111c1.01-0.931,2.184-1.667,3.437-2.25c-3.282,0.718-6.791,1.134-6.776-0.372     c0.012-1.185,1.685-1.869,3.057-2.233C15.133,36.693,14.1,36.406,14.1,35c0-0.906,0.706-1.355,1.688-1.548     c-1.033-1.152-1.958-2.423-2.861-3.677c-0.531-0.737-1.09-1.602-0.884-2.487c0.138-0.593,0.579-1.006,1.129-1.283     c3.225,2.998,8.823,7.919,13.105,10.181c2.494-2.203,3.219-4.615,3.219-4.615c0.599-1.079,1.104-2.213,1.56-3.36     c0.046-0.115,0.87-2.336,0.883-3.387c0.015-1.18-0.34-2.438-0.714-3.551C30.857,20.174,29.954,19.193,30,18     c0.059-1.529,1.799-2.244,2.654-3.193c0.514-0.571,0.648-1.429,0.658-2.169c0.012-0.89-0.128-1.791,0.047-2.663     c0.081-0.4,0.241-0.806,0.558-1.063c0.174-0.141,0.385-0.212,0.604-0.247c-0.19,2.41-0.158,5.232,0.894,6.086     C35.415,14.75,33.976,17.012,34.802,19.672z" style="fill: #018273;"/>
		</g>
	</g>
</g>
<metadata><work rdf:about=""><format>image/svg+xml</format><type rdf:resource="http://purl.org/dc/dcmitype/StillImage"/><license rdf:resource="http://creativecommons.org/licenses/by/4.0/"/><attributionname>Carol Liao</attributionname><attributionurl>http://www.toicon.com/icons/fandom_pucker</attributionurl></work></metadata></svg>
