<?xml version="1.0" encoding="UTF-8"?>
<!-- Generator: Adobe Illustrator 19.1.0, SVG Export Plug-In . SVG Version: 6.00 Build 0)  -->
<!DOCTYPE svg PUBLIC "-//W3C//DTD SVG 1.1//EN" "http://www.w3.org/Graphics/SVG/1.1/DTD/svg11.dtd">
<svg xmlns="http://www.w3.org/2000/svg" xmlns:xlink="http://www.w3.org/1999/xlink" xmlns:dc="http://purl.org/dc/elements/1.1/" xmlns:cc="http://creativecommons.org/ns#" xmlns:rdf="http://www.w3.org/1999/02/22-rdf-syntax-ns#" version="1.1" id="DESIGNS" x="0px" y="0px" width="64px" height="64px" viewBox="0 0 64 64" style="enable-background:new 0 0 64 64;" xml:space="preserve">
<title property="dc:title">to deliver</title><desc property="dc:description">An icon for "deliver" from the Fandom series on to [icon]. Downloaded from http://www.toicon.com/icons/fandom_deliver by 79.151.191.67 on 2022-03-24. Licensed CC-BY, see http://toicon.com/license/ for details.</desc>
<g>
	<g>
		<path class="fandom_acht" d="M32,7c13.807,0,25,11.193,25,25H7C7,18.193,18.193,7,32,7z" style="fill: #6BC4D2;"/>
		<path class="fandom_zeven" d="M32,57C18.193,57,7,45.807,7,32h50C57,45.807,45.807,57,32,57z" style="fill: #508D9B;"/>
	</g>
	<g>
		<path class="fandom_zeventien" d="M40.013,31.516c1.221,3.815,4.159,8.423,11.208,9.863c-0.325-1.472-0.723-2.927-1.2-4.356    C45.307,35.915,42.128,33.739,40.013,31.516z" style="fill: #666666;"/>
		<path class="fandom_een" d="M25.359,12.546c-0.045-0.014-0.094-0.036-0.137-0.064L23,11h-1.706    c-1.353,5.444-3.836,18.026,0.346,23.982C21.76,34.987,21.879,35,22,35c4.418,0,8-3.582,8-8    C30,23.781,28.101,16.354,25.359,12.546z" style="fill: #FF786E;"/>
		<path class="fandom_twee" d="M25.223,6.518L23,8h-2l-2.223-1.482C18.445,6.297,18,6.535,18,6.934v5.131    c0,0.351,0.341,0.557,0.649,0.457C15.905,16.327,14,23.779,14,27c0,4.297,3.39,7.792,7.64,7.982    c-4.182-5.956-1.7-18.538-0.346-23.982H23l2.223,1.482C25.555,12.703,26,12.465,26,12.066V6.934    C26,6.535,25.555,6.297,25.223,6.518z" style="fill: #BE5652;"/>
		<path class="fandom_vier" d="M34.481,5.129c-0.806,0.01-1.687,0.018-2.204,0.024c-1.643,0.02-8.505,0.496-9.802,1.736L21.361,8H23    l2.223-1.482C25.555,6.297,26,6.535,26,6.934v0.431c2.614-0.513,5.446-0.979,6.52-0.753c0.392,0.083,0.952,0.163,1.491,0.241    C34.034,6.229,34.202,5.646,34.481,5.129z" style="fill: #FFC865;"/>
		<path class="fandom_drie" d="M34,7c0-0.05,0.009-0.097,0.011-0.147c-0.539-0.078-1.099-0.159-1.491-0.241    c-1.073-0.226-3.905,0.24-6.52,0.753v1.372c2.573-0.526,5.305-1.011,6.52-0.755c0.519,0.109,1.12,0.193,1.696,0.257    C34.087,7.847,34,7.435,34,7z" style="fill: #BE9148;"/>
		<path class="fandom_veertien" d="M49.434,35.379c0.209,0.543,0.403,1.092,0.587,1.644c-4.714-1.108-7.893-3.284-10.008-5.507    c-0.978-3.054-0.857-5.6-0.857-5.6l0.086-0.093c2.271,0.133,4.646,1.354,6.153,2.836C47.273,30.506,48.487,32.921,49.434,35.379z     M35.778,5.222c0,2.209,1.791,4,4,4c0.645,0,1.245-0.167,1.784-0.438C41.833,8.245,42,7.645,42,7c0-2.209-1.791-4-4-4    c-0.645,0-1.245,0.167-1.785,0.438C35.945,3.977,35.778,4.577,35.778,5.222z" style="fill: #EFEAE0;"/>
		<path class="fandom_twaalf" d="M48.252,59.927c0.593,0.9,0.069,2.073-1.145,2.073l-2.437,0c-1.178,0-1.806-1.806-0.69-2.517    l1.363-0.868L46.6,48.288c0.062-0.508-0.857-1.298-0.931-1.385c0.093,0.058,1.935,1.263,2.908,1.653L47.38,58.634L48.252,59.927z     M42.357,46.427c-0.597-0.908-1.108-1.874-1.588-2.852c-1.824-1.385-3.681-2.861-5.071-4.681c1.308,2.754,3.768,7.619,5.819,9.771    l-1.158,9.741l-1.693,1.077c-1.116,0.71-0.633,2.489,0.69,2.517h2.09c1.077,0.023,2.085-1.173,1.492-2.073l-0.593-0.899    l1.213-10.606C43.644,47.671,42.704,47.003,42.357,46.427z" style="fill: #644638;"/>
		<path class="fandom_dertien" d="M51.885,45.089c-0.137-1.249-0.393-2.482-0.664-3.71c-12.692-2.593-12.065-15.463-12.065-15.463    l0.086-0.093c0,0-4.841-6.943,1.51-15.95c0.326-0.315,0.81-1.089,0.81-1.089c-0.539,0.271-1.14,0.438-1.784,0.438    c-2.209,0-4-1.791-4-4c0-0.645,0.167-1.245,0.438-1.784C34.907,4.095,34,5.436,34,7c0,1.699,1.064,3.142,2.558,3.721    c-1.71,4.487-5.044,13.958-2.758,18.689c-0.215,0.586-0.357,1.201-0.42,1.821c-0.254,2.5,0.51,5.071,1.933,7.143    c1.422,2.072,3.474,3.695,5.475,5.215c1.93,1.465,3.951,2.811,6.048,4.027c0.877,0.509,1.768,0.995,2.678,1.444    c0.613,0.303,1.385,0.578,1.937,0.176c0.393-0.287,0.512-0.817,0.556-1.301C52.042,47.556,52.015,46.281,51.885,45.089z" style="fill: #AA9991;"/>
	</g>
</g>
<metadata><work rdf:about=""><format>image/svg+xml</format><type rdf:resource="http://purl.org/dc/dcmitype/StillImage"/><license rdf:resource="http://creativecommons.org/licenses/by/4.0/"/><attributionname>Carol Liao</attributionname><attributionurl>http://www.toicon.com/icons/fandom_deliver</attributionurl></work></metadata></svg>
