<?xml version="1.0" encoding="UTF-8"?>
<!-- Generator: Adobe Illustrator 19.1.0, SVG Export Plug-In . SVG Version: 6.00 Build 0)  -->
<!DOCTYPE svg PUBLIC "-//W3C//DTD SVG 1.1//EN" "http://www.w3.org/Graphics/SVG/1.1/DTD/svg11.dtd">
<svg xmlns="http://www.w3.org/2000/svg" xmlns:xlink="http://www.w3.org/1999/xlink" xmlns:dc="http://purl.org/dc/elements/1.1/" xmlns:cc="http://creativecommons.org/ns#" xmlns:rdf="http://www.w3.org/1999/02/22-rdf-syntax-ns#" version="1.1" id="DESIGNS" x="0px" y="0px" width="64px" height="64px" viewBox="0 0 64 64" style="enable-background:new 0 0 64 64;" xml:space="preserve">
<title property="dc:title">to guard</title><desc property="dc:description">An icon for "guard" from the Fandom series on to [icon]. Downloaded from http://www.toicon.com/icons/fandom_guard by 79.151.191.67 on 2022-03-24. Licensed CC-BY, see http://toicon.com/license/ for details.</desc>
<g>
	<g>
		<path class="fandom_zes" d="M32,7C18.193,7,7,18.193,7,32h50C57,18.193,45.807,7,32,7z" style="fill: #00B3AA;"/>
		<path class="fandom_vijf" d="M32,57c13.807,0,25-11.193,25-25H7C7,45.807,18.193,57,32,57z" style="fill: #018273;"/>
	</g>
	<g>
		<path class="fandom_veertien" d="M28.001,13.906c0.033-1.704,2.53-2.867,3.8-0.793c0.058,0.094,0.193,0.298,0.193,0.298    c0.011,0.016,0.195-0.282,0.205-0.299c1.274-2.086,3.766-0.9,3.801,0.788c0.035,1.723-1.064,2.671-3.509,5.386    c-0.255,0.283-0.708,0.284-0.963,0.002C29.084,16.596,27.968,15.636,28.001,13.906z M38.994,22    c-1.281,2.252-4.698,3.122-6.619-0.226c-0.108-0.188-0.362-0.597-0.362-0.597c-0.001-0.002-0.366,0.565-0.385,0.597    c-1.927,3.367-5.338,2.471-6.62,0.226H22v27c0,0.552,0.448,1,1,1h0.666c0.848-0.549,1.935-1,3.256-1c1.03,0,1.736,0.45,2.222,1    h5.712c0.486-0.55,1.191-1,2.222-1c1.321,0,2.408,0.451,3.256,1H41c0.552,0,1-0.448,1-1V22H38.994z" style="fill: #EFEAE0;"/>
		<path class="fandom_een" d="M45.57,22H45v19c0,0.552-0.448,1-1,1h-2V22h-3.006c-1.281,2.252-4.698,3.122-6.619-0.226    c-0.108-0.188-0.362-0.597-0.362-0.597c0,0-0.002-1.677-0.002-1.677c0.177-0.001,0.353-0.071,0.48-0.212    c2.445-2.715,3.544-3.664,3.509-5.386c-0.034-1.689-2.527-2.874-3.801-0.788c-0.01,0.016-0.161,0.26-0.194,0.287L32,9.004    c0,0,0.232,0.037,0.346,0.074c0.2,0.062,0.39,0.157,0.54,0.325c4.475,5.023,6.571,6.892,6.607,10.055    c0.42-0.27,0.934-0.458,1.584-0.458c2.391,0,4.044,1.464,4.824,2.347C46.132,21.608,45.931,22,45.57,22z M31.674,14.227    l-0.568,1.278c-0.192,0.432-0.115,1.017,0.187,1.294c0.302,0.277,1.139,0.261,1.416,0c0.276-0.261,0.379-0.862,0.187-1.294    l-0.568-1.278C32.192,13.924,31.808,13.924,31.674,14.227z M31.35,41.205c0.352,0.395,0.975,0.393,1.325-0.002    c3.361-3.801,4.873-5.129,4.824-7.541c-0.047-2.364-3.474-4.024-5.226-1.104c-0.014,0.024-0.267,0.441-0.282,0.418    c0,0-0.186-0.286-0.265-0.418c-1.746-2.903-5.18-1.276-5.224,1.11C26.455,36.09,27.991,37.435,31.35,41.205z M34.428,52h7.142    c0.362,0,0.563-0.392,0.332-0.653C41.122,50.464,39.469,49,37.078,49c-1.958,0-2.766,1.618-3.057,2.477    C33.933,51.737,34.137,52,34.428,52z" style="fill: #FF786E;"/>
		<path class="fandom_twee" d="M29.572,52H22.43c-0.362,0-0.563-0.392-0.332-0.653C22.878,50.464,24.531,49,26.922,49    c1.958,0,2.766,1.618,3.057,2.477C30.067,51.737,29.863,52,29.572,52z M31.527,19.289c-2.443-2.693-3.56-3.653-3.526-5.383    c0.033-1.704,2.53-2.867,3.8-0.793c0.057,0.094,0.193,0.298,0.193,0.298c0.001,0.001,0.005-0.007,0.007-0.007v-4.4    c0,0-0.254,0.033-0.378,0.074c-0.201,0.062-0.391,0.159-0.542,0.329c-4.473,5.059-6.538,6.909-6.574,10.052    C24.086,19.188,23.573,19,22.922,19c-2.391,0-4.044,1.464-4.824,2.347C17.868,21.608,18.069,22,18.43,22H19v12h-3V13.276    c2.781-3.106,4.043-4.411,3.999-6.614c-0.047-2.364-3.474-4.024-5.226-1.104c0,0-0.267,0.441-0.282,0.418l-0.265-0.418    c-1.746-2.903-5.18-1.276-5.224,1.11c-0.042,2.206,1.234,3.524,3.999,6.59V51c0,0.552,0.448,1,1,1h1c0.552,0,1-0.448,1-1V37h6V22    h3.008c1.281,2.245,4.692,3.141,6.62-0.226c0.018-0.032,0.325-0.56,0.372-0.583v-1.693C31.826,19.496,31.653,19.427,31.527,19.289    z" style="fill: #BE5652;"/>
	</g>
</g>
<metadata><work rdf:about=""><format>image/svg+xml</format><type rdf:resource="http://purl.org/dc/dcmitype/StillImage"/><license rdf:resource="http://creativecommons.org/licenses/by/4.0/"/><attributionname>Carol Liao</attributionname><attributionurl>http://www.toicon.com/icons/fandom_guard</attributionurl></work></metadata></svg>
