<?xml version="1.0" encoding="UTF-8"?>
<!-- Generator: Adobe Illustrator 19.1.0, SVG Export Plug-In . SVG Version: 6.00 Build 0)  -->
<!DOCTYPE svg PUBLIC "-//W3C//DTD SVG 1.1//EN" "http://www.w3.org/Graphics/SVG/1.1/DTD/svg11.dtd">
<svg xmlns="http://www.w3.org/2000/svg" xmlns:xlink="http://www.w3.org/1999/xlink" xmlns:dc="http://purl.org/dc/elements/1.1/" xmlns:cc="http://creativecommons.org/ns#" xmlns:rdf="http://www.w3.org/1999/02/22-rdf-syntax-ns#" version="1.1" id="DESIGNS" x="0px" y="0px" width="64px" height="64px" viewBox="0 0 64 64" style="enable-background:new 0 0 64 64;" xml:space="preserve">
<title property="dc:title">to shrink</title><desc property="dc:description">An icon for "shrink" from the Fandom series on to [icon]. Downloaded from http://www.toicon.com/icons/fandom_shrink by 79.151.191.67 on 2022-03-24. Licensed CC-BY, see http://toicon.com/license/ for details.</desc>
<g>
	<g>
		<path class="fandom_vier" d="M32,7C18.193,7,7,18.193,7,32h50C57,18.193,45.807,7,32,7z" style="fill: #FFC865;"/>
		<path class="fandom_drie" d="M32,57c13.807,0,25-11.193,25-25H7C7,45.807,18.193,57,32,57z" style="fill: #BE9148;"/>
	</g>
	<g>
		<path class="fandom_achttien" d="M46,36.001v20.783c0,0.353-0.182,0.677-0.486,0.858c-0.328,0.195-0.805,0.469-1.391,0.755    c-6.707,3.27-17.041,3.52-23.547,0.17l-2.007-0.954C18.222,57.446,18,57.095,18,56.709V36.001c0-5.036,2.371-9.779,6.4-12.801    l1.2-0.9c0.252-0.189,0.4-0.485,0.4-0.8v-4.012C27.593,17.805,29.692,18,32,18s4.407-0.195,6-0.512V21.5    c0,0.315,0.148,0.611,0.4,0.8l1.2,0.9C43.629,26.222,46,30.964,46,36.001z M37.377,12.399l-0.23,0.976    c-0.09,0.381-0.393,0.675-0.777,0.752c0,0-2.057,0.671-4.37,0.671c-2.313,0-4.37-0.671-4.37-0.671    c-0.384-0.077-0.688-0.37-0.777-0.752l-0.23-0.976C24.428,12.763,23,13.344,23,14c0,1.105,4.029,2,9,2s9-0.895,9-2    C41,13.344,39.572,12.763,37.377,12.399z" style="fill: #808080;"/>
		<path class="fandom_negen" d="M32,39c-7.146,0-12-1.194-12-2.667v19.187c0,1.473,5.373,3.667,12,3.667s12-2.194,12-3.667V36.333    C44,37.806,39.333,39,32,39z" style="fill: #685683;"/>
		<ellipse class="fandom_tien" cx="32" cy="36.5" rx="12" ry="2.5" style="fill: #8579A3;"/>
		<path class="fandom_zeventien" d="M32,16c-4.971,0-9-0.895-9-2v2c0,1.105,4.029,2,9,2s9-0.895,9-2v-2C41,15.105,36.971,16,32,16z" style="fill: #666666;"/>
		<path class="fandom_veertien" d="M43.172,37.071L32.586,26.485c-0.457-0.457-0.665-1.106-0.559-1.743l1.01-6.061    c0.14-0.843,0.801-1.503,1.644-1.644l6.061-1.01c0.637-0.106,1.286,0.102,1.743,0.559l10.586,10.586    c0.781,0.781,0.781,2.047,0,2.828L46,37.071C45.219,37.852,43.953,37.852,43.172,37.071z" style="fill: #EFEAE0;"/>
		<path class="fandom_twaalf" d="M39,5.5C39,6.328,35.866,7,32,7s-7-0.672-7-1.5S28.134,4,32,4S39,4.672,39,5.5z M37,19    c-1.105,0-2,0.895-2,2c0,1.105,0.895,2,2,2s2-0.895,2-2C39,19.895,38.105,19,37,19z M37,22c-0.552,0-1-0.448-1-1    c0-0.552,0.448-1,1-1s1,0.448,1,1C38,21.552,37.552,22,37,22z" style="fill: #644638;"/>
		<path class="fandom_elf" d="M32,7c-3.866,0-7-0.672-7-1.5l1.853,7.874c0.09,0.381,0.393,0.675,0.777,0.752    c0,0,2.073,0.671,4.37,0.671s4.37-0.671,4.37-0.671c0.384-0.077,0.688-0.37,0.777-0.752L39,5.5C39,6.328,35.866,7,32,7z" style="fill: #4B322A;"/>
	</g>
</g>
<metadata><work rdf:about=""><format>image/svg+xml</format><type rdf:resource="http://purl.org/dc/dcmitype/StillImage"/><license rdf:resource="http://creativecommons.org/licenses/by/4.0/"/><attributionname>Carol Liao</attributionname><attributionurl>http://www.toicon.com/icons/fandom_shrink</attributionurl></work></metadata></svg>
