<?xml version="1.0" encoding="UTF-8"?>
<!-- Generator: Adobe Illustrator 19.1.0, SVG Export Plug-In . SVG Version: 6.00 Build 0)  -->
<!DOCTYPE svg PUBLIC "-//W3C//DTD SVG 1.1//EN" "http://www.w3.org/Graphics/SVG/1.1/DTD/svg11.dtd">
<svg xmlns="http://www.w3.org/2000/svg" xmlns:xlink="http://www.w3.org/1999/xlink" xmlns:dc="http://purl.org/dc/elements/1.1/" xmlns:cc="http://creativecommons.org/ns#" xmlns:rdf="http://www.w3.org/1999/02/22-rdf-syntax-ns#" version="1.1" id="DESIGNS" x="0px" y="0px" width="64px" height="64px" viewBox="0 0 64 64" style="enable-background:new 0 0 64 64;" xml:space="preserve">
<title property="dc:title">to curse</title><desc property="dc:description">An icon for "curse" from the Fandom series on to [icon]. Downloaded from http://www.toicon.com/icons/fandom_curse by 79.151.191.67 on 2022-03-24. Licensed CC-BY, see http://toicon.com/license/ for details.</desc>
<g>
	<g>
		<path class="fandom_tien" d="M32,7C18.193,7,7,18.193,7,32h50C57,18.193,45.807,7,32,7z" style="fill: #8579A3;"/>
		<path class="fandom_negen" d="M32,57c13.807,0,25-11.193,25-25H7C7,45.807,18.193,57,32,57z" style="fill: #685683;"/>
	</g>
	<g>
		<path class="fandom_vier" d="M6.679,23.545l-1.672,1.5c-1.32-4.346-1.261-8.302-0.052-11.42l1.672-1.5    C5.418,15.243,5.359,19.199,6.679,23.545z M33.58,44.942l-0.183,1.275c2.036-0.415,3.772-1.277,5.15-2.513l1.672-1.5    C38.516,43.733,36.274,44.702,33.58,44.942z M18.982,40.209l-1.672,1.5c3.757,2.675,7.902,4.402,11.875,4.733l1.672-1.5    C26.884,44.612,22.738,42.885,18.982,40.209z M7.831,26.603L6.15,28.121c1.908,4.346,4.907,8.302,8.435,11.421l1.672-1.5    C12.729,34.923,9.739,30.949,7.831,26.603z M7.741,9.957C8.231,9.215,8.806,8.546,9.46,7.959l-1.672,1.5    c-0.14,0.126-0.262,0.27-0.395,0.403L7.741,9.957z" style="fill: #FFC865;"/>
		<path class="fandom_elf" d="M6.627,12.124l-1.672,1.5l-1.367-2.236c-0.122-0.203-0.109-0.39-0.005-0.484l1.672-1.5    C5.15,9.498,5.137,9.685,5.26,9.888L6.627,12.124z M33.044,47.166c-0.129,0-0.285-0.072-0.414-0.216l-1.773-2.007l-1.672,1.5    l1.773,2.007c0.13,0.144,0.286,0.216,0.414,0.216c0.068,0,0.127-0.02,0.172-0.06l1.672-1.5    C33.172,47.146,33.112,47.166,33.044,47.166z M5.614,25.461c-0.319-0.171-0.473-0.585-0.281-0.756l-1.672,1.5    c-0.192,0.171-0.038,0.585,0.281,0.756l2.208,1.16l1.681-1.518L5.614,25.461z M17.127,40.823c-0.245,0-0.535-0.258-0.575-0.545    l-0.294-2.235l-1.672,1.5l0.294,2.235c0.04,0.288,0.33,0.545,0.575,0.545c0.034,0,1.854-0.614,1.854-0.614l1.672-1.5    C18.982,40.209,17.161,40.823,17.127,40.823z M16.101,5.223l0.278-2.006c0.01-0.067,0.038-0.119,0.078-0.155l-1.672,1.5    c-0.04,0.036-0.068,0.088-0.079,0.155l-0.101,0.729C15.089,5.347,15.585,5.269,16.101,5.223z M44.247,40.823    c-0.033,0-2.309-0.614-2.309-0.614c-0.385,0.582-0.831,1.109-1.316,1.597c0,0,1.921,0.517,1.954,0.517    C42.645,42.323,44.317,40.823,44.247,40.823z" style="fill: #4B322A;"/>
		<path class="fandom_drie" d="M36.345,25.087c2.662,7.163-0.338,12.985-6.682,12.985c-6.344,0-13.664-5.822-16.325-12.985    s0.329-12.993,6.672-12.993C26.353,12.094,33.683,17.924,36.345,25.087z M20.397,26.178c0.22,0.164,0.396,0.398,0.486,0.639    l1.523,4.1c0.113,0.304,0.365,0.592,0.665,0.748l4.283,2.237c0.291,0.152,0.582,0.228,0.845,0.228    c0.263,0,0.499-0.076,0.681-0.228l2.62-2.237c0.184-0.156,0.221-0.444,0.109-0.748l-1.523-4.1    c-0.09-0.242-0.087-0.475,0.011-0.639l1.168-2.003c0.169-0.288,0.044-0.756-0.297-1.115l-1.243-1.302    c-0.031-0.101-0.061-0.203-0.099-0.304c-1.422-3.827-5.322-6.929-8.711-6.929s-4.984,3.102-3.562,6.929    c0.038,0.101,0.089,0.203,0.127,0.304l-0.276,1.302c-0.067,0.359,0.155,0.826,0.538,1.115L20.397,26.178z M6.679,23.545    l1.808-1.552c0.046-0.039,0.104-0.057,0.167-0.057c0.201,0,0.452,0.182,0.545,0.431l2.019,5.433    c0.094,0.254-0.022,0.432-0.221,0.432l-3.165-1.628c1.908,4.346,4.898,8.32,8.426,11.439l-0.402-3.002    c-0.029-0.206,0.085-0.322,0.248-0.322c0.096,0,5.143,3.962,5.143,3.962c0.294,0.234,0.355,0.639,0.097,0.725l-2.361,0.804    c3.757,2.675,7.902,4.402,11.875,4.734l-2.375-2.693c-0.252-0.288-0.206-0.647,0.091-0.647h4.811c0.29,0,0.61,0.359,0.572,0.647    l-0.375,2.693c3.727-0.332,6.589-2.059,8.357-4.733l-2.965-0.804c-0.315-0.086-0.562-0.491-0.435-0.725l1.971-3.835    c0.045-0.087,0.127-0.127,0.224-0.127c0.163,0,0.366,0.116,0.491,0.322l1.828,3.003c1.211-3.12,1.27-7.078-0.053-11.426    c0,0-1.913,1.614-1.978,1.614c-0.201,0-0.454-0.178-0.548-0.432l-2.019-5.433c-0.093-0.249,0.028-0.431,0.231-0.431    c0.063,0,0.135,0.018,0.21,0.057l2.963,1.556c-1.91-4.348-4.909-8.305-8.438-11.425l0.403,3.002    c0.029,0.206-0.087,0.326-0.25,0.326c-0.096,0-0.209-0.041-0.319-0.131l-4.821-3.835c-0.301-0.234-0.355-0.639-0.104-0.725    l2.367-0.804c-3.757-2.676-7.903-4.402-11.878-4.734l2.38,2.693c0.252,0.288,0.199,0.647-0.091,0.647h-4.811    c-0.297,0-0.61-0.359-0.572-0.647l0.378-2.693c-3.728,0.33-6.591,2.058-8.36,4.734l2.958,0.804    c0.322,0.086,0.562,0.491,0.442,0.725L9.17,15.321c-0.046,0.089-0.129,0.131-0.225,0.131c-0.163,0-0.365-0.12-0.489-0.326    l-1.828-3.001C5.418,15.243,5.359,19.199,6.679,23.545z M11.798,25.087c-3.024-8.137,0.369-14.723,7.569-14.723    c7.207,0,15.487,6.586,18.511,14.723c3.021,8.129-0.365,14.715-7.572,14.715C23.106,39.802,14.818,33.216,11.798,25.087    L11.798,25.087z" style="fill: #BE9148;"/>
		<path class="fandom_twaalf" d="M33.12,9.888l0.704,5.238c0.029,0.206-0.087,0.326-0.25,0.326c-0.096,0-0.209-0.041-0.319-0.131    l-4.821-3.835c-0.301-0.234-0.355-0.639-0.104-0.725c0,0,4.187-1.418,4.22-1.418C32.79,9.343,33.08,9.6,33.12,9.888z     M38.685,21.936c-0.203,0-0.323,0.182-0.231,0.431l2.019,5.433c0.094,0.254,0.347,0.432,0.548,0.432    c0.064,0,3.325-2.77,3.325-2.77c0.192-0.171,0.038-0.585-0.281-0.756C44.065,24.705,38.748,21.936,38.685,21.936z M8.654,21.936    c-0.063,0-0.121,0.018-0.167,0.057l-3.155,2.712c-0.192,0.171-0.038,0.585,0.281,0.756l5.383,2.77c0.2,0,0.316-0.178,0.221-0.432    l-2.019-5.433C9.107,22.117,8.855,21.936,8.654,21.936z M16.633,3c-0.129,0-0.231,0.072-0.254,0.216l-0.656,4.7    c-0.038,0.288,0.275,0.647,0.572,0.647h4.811c0.29,0,0.343-0.359,0.091-0.647l-4.156-4.7C16.916,3.072,16.762,3,16.633,3z     M40.733,34.718c-0.096,0-0.179,0.041-0.224,0.127l-1.971,3.835c-0.127,0.234,0.12,0.639,0.435,0.725c0,0,5.241,1.418,5.274,1.418    c0.24,0,0.339-0.258,0.165-0.545l-3.189-5.238C41.099,34.834,40.896,34.718,40.733,34.718z M16.103,34.718    c-0.163,0-0.277,0.116-0.248,0.322l0.697,5.238c0.04,0.288,0.33,0.545,0.575,0.545c0.034,0,4.215-1.418,4.215-1.418    c0.258-0.086,0.197-0.491-0.097-0.725C21.246,38.68,16.199,34.718,16.103,34.718z M20.913,14.526    c-3.389,0-4.984,3.102-3.562,6.929c0.038,0.101,0.089,0.203,0.127,0.304l-0.276,1.302c-0.067,0.359,0.155,0.826,0.538,1.115    l2.656,2.003c0.22,0.164,0.396,0.398,0.486,0.639l1.523,4.1c0.113,0.304,0.365,0.592,0.665,0.748l4.283,2.237    c0.291,0.152,0.582,0.228,0.845,0.228s0.499-0.076,0.681-0.228l2.62-2.237c0.184-0.156,0.221-0.444,0.109-0.748l-1.523-4.1    c-0.09-0.242-0.087-0.475,0.011-0.639l1.168-2.003c0.169-0.288,0.044-0.756-0.297-1.115l-1.243-1.302    c-0.031-0.101-0.061-0.203-0.099-0.304C28.203,17.628,24.302,14.526,20.913,14.526z M19.367,10.364    c-7.2,0-10.592,6.586-7.569,14.723c3.021,8.129,11.308,14.715,18.508,14.715c7.207,0,10.593-6.586,7.572-14.715    C34.854,16.95,26.573,10.364,19.367,10.364z M29.662,38.072c-6.344,0-13.664-5.822-16.325-12.985s0.329-12.993,6.672-12.993    c6.344,0,13.674,5.83,16.335,12.993S36.006,38.072,29.662,38.072L29.662,38.072z M28.572,41.603c-0.297,0-0.343,0.359-0.091,0.647    l4.149,4.7c0.13,0.144,0.286,0.216,0.414,0.216c0.129,0,0.229-0.072,0.248-0.216l0.663-4.7c0.038-0.288-0.282-0.647-0.572-0.647    H28.572z M5.43,9.343c-0.245,0-0.344,0.258-0.17,0.545l3.196,5.238c0.124,0.206,0.326,0.326,0.489,0.326    c0.096,0,0.179-0.041,0.225-0.131l1.971-3.835c0.12-0.234-0.12-0.639-0.442-0.725C10.699,10.761,5.464,9.343,5.43,9.343z" style="fill: #644638;"/>
	</g>
</g>
<metadata><work rdf:about=""><format>image/svg+xml</format><type rdf:resource="http://purl.org/dc/dcmitype/StillImage"/><license rdf:resource="http://creativecommons.org/licenses/by/4.0/"/><attributionname>Carol Liao</attributionname><attributionurl>http://www.toicon.com/icons/fandom_curse</attributionurl></work></metadata></svg>
