<?xml version="1.0" encoding="UTF-8"?>
<!-- Generator: Adobe Illustrator 19.1.0, SVG Export Plug-In . SVG Version: 6.00 Build 0)  -->
<!DOCTYPE svg PUBLIC "-//W3C//DTD SVG 1.1//EN" "http://www.w3.org/Graphics/SVG/1.1/DTD/svg11.dtd">
<svg xmlns="http://www.w3.org/2000/svg" xmlns:xlink="http://www.w3.org/1999/xlink" xmlns:dc="http://purl.org/dc/elements/1.1/" xmlns:cc="http://creativecommons.org/ns#" xmlns:rdf="http://www.w3.org/1999/02/22-rdf-syntax-ns#" version="1.1" id="DESIGNS" x="0px" y="0px" width="64px" height="64px" viewBox="0 0 64 64" style="enable-background:new 0 0 64 64;" xml:space="preserve">
<title property="dc:title">to aid</title><desc property="dc:description">An icon for "aid" from the Fandom series on to [icon]. Downloaded from http://www.toicon.com/icons/fandom_aid by 79.151.191.67 on 2022-03-24. Licensed CC-BY, see http://toicon.com/license/ for details.</desc>
<g>
	<g>
		<path class="fandom_vier" d="M32,7C18.193,7,7,18.193,7,32h50C57,18.193,45.807,7,32,7z" style="fill: #FFC865;"/>
		<path class="fandom_drie" d="M32,57c13.807,0,25-11.193,25-25H7C7,45.807,18.193,57,32,57z" style="fill: #BE9148;"/>
	</g>
	<g>
		<path class="fandom_dertien" d="M46.115,36.677c1.188-3.142,3.296-10.527,0.373-17.795c-3.852-9.579-9.61-5.041-15.7-3.067    C24.78,17.763,15.43,15.267,8.895,19.8c-0.183-0.109-0.352-0.211-0.492-0.296c-0.359-0.218-0.86-0.218-1.207,0.272    c-0.286,0.405-0.303,1.084,0.239,1.432c7.939,5.096,31.324,26.668,32.507,26.788c1.243,0.126,12.262-4.411,12.054-6.386    C51.897,40.654,49.453,38.644,46.115,36.677z" style="fill: #AA9991;"/>
		<path class="fandom_veertien" d="M46.115,36.677c1.188-3.142,3.296-10.527,0.373-17.795c-1.662-4.132-3.679-5.634-5.923-5.851    c0.311,4.603,0.653,14.368-1.371,20.29c-1.725-0.66-3.451-1.178-5.05-1.457c-6.513-1.138-22.441-10.354-25.74-12.359    c-0.359-0.218-0.817-0.163-1.117,0.133c0,0-0.057,0.095-0.089,0.139c4.138,2.723,19.045,12.386,26.739,15.406    c6.387,2.507,12.714,6.531,15.853,8.657c1.352-0.842,2.269-1.647,2.208-2.229C51.897,40.654,49.453,38.644,46.115,36.677z" style="fill: #EFEAE0;"/>
		<path class="fandom_twee" d="M43.049,26.009c-2.894,2.698-4.711,5.203-4.864,5.417c-0.322,0.45-0.214,1.073,0.241,1.391    C38.603,32.94,38.807,33,39.008,33c0.316,0,0.628-0.147,0.824-0.421c0.036-0.049,1.764-2.428,4.513-5.01    C49.773,32.034,59,18,59,18C40.84,19.418,42.253,24.546,43.049,26.009z" style="fill: #BE5652;"/>
		<path class="fandom_een" d="M59,18c-18.227,1.423-16.736,6.584-15.942,8.024C46.154,21.979,59,18,59,18z" style="fill: #FF786E;"/>
		<path class="fandom_zeven" d="M47.442,31.997c0.183-0.925,0.332-1.921,0.424-2.975c-10.51-1.927-18.127-8.311-22.071-12.403    c-1.27,0.078-2.596,0.109-3.944,0.151C25.266,20.791,34.092,29.61,47.442,31.997z" style="fill: #508D9B;"/>
	</g>
</g>
<metadata><work rdf:about=""><format>image/svg+xml</format><type rdf:resource="http://purl.org/dc/dcmitype/StillImage"/><license rdf:resource="http://creativecommons.org/licenses/by/4.0/"/><attributionname>Carol Liao</attributionname><attributionurl>http://www.toicon.com/icons/fandom_aid</attributionurl></work></metadata></svg>
