<?xml version="1.0" encoding="UTF-8"?>
<!-- Generator: Adobe Illustrator 19.1.0, SVG Export Plug-In . SVG Version: 6.00 Build 0)  -->
<!DOCTYPE svg PUBLIC "-//W3C//DTD SVG 1.1//EN" "http://www.w3.org/Graphics/SVG/1.1/DTD/svg11.dtd">
<svg xmlns="http://www.w3.org/2000/svg" xmlns:xlink="http://www.w3.org/1999/xlink" xmlns:dc="http://purl.org/dc/elements/1.1/" xmlns:cc="http://creativecommons.org/ns#" xmlns:rdf="http://www.w3.org/1999/02/22-rdf-syntax-ns#" version="1.1" id="DESIGNS" x="0px" y="0px" width="64px" height="64px" viewBox="0 0 64 64" style="enable-background:new 0 0 64 64;" xml:space="preserve">
<title property="dc:title">to ascend</title><desc property="dc:description">An icon for "ascend" from the Fandom series on to [icon]. Downloaded from http://www.toicon.com/icons/fandom_ascend by 79.151.191.67 on 2022-03-24. Licensed CC-BY, see http://toicon.com/license/ for details.</desc>
<g>
	<g>
		<path class="fandom_zeven" d="M32,57c13.807,0,25-11.193,25-25H7C7,45.807,18.193,57,32,57z" style="fill: #508D9B;"/>
		<path class="fandom_acht" d="M32,7C18.193,7,7,18.193,7,32h50C57,18.193,45.807,7,32,7z" style="fill: #6BC4D2;"/>
	</g>
	<g>
		<path class="fandom_twaalf" d="M39.6,16H29.4c-0.221,0-0.4-0.179-0.4-0.4V13h11v2.6C40,15.821,39.821,16,39.6,16z M22.288,50.202    C22.126,49.139,22,47.756,22,46h-2c0,2.302-0.209,3.954-0.435,5.078C20.49,50.831,21.428,50.544,22.288,50.202z" style="fill: #644638;"/>
		<path class="fandom_negentien" d="M36.93,20H34v24c1.371,0.001,2.838,0.052,4.299,0.09C37.943,42.519,37.509,39.7,37,34.673    C36.163,26.404,36.575,21.857,36.93,20z" style="fill: #CCCCCC;"/>
		<path class="fandom_achttien" d="M32.07,20c0.354,1.857,0.767,6.404-0.07,14.673c-0.529,5.222-0.976,8.056-1.34,9.589    C31.728,44.07,32.869,43.999,34,44V20H32.07z" style="fill: #808080;"/>
		<path class="fandom_dertien" d="M37.212,20h-5.423c-0.172,0-0.325-0.11-0.379-0.274L30,16h9l-1.409,3.726    C37.537,19.89,37.384,20,37.212,20z M30,10.896V9h-2v3.099C28.793,11.773,29.554,11.366,30,10.896z" style="fill: #AA9991;"/>
		<path class="fandom_vijftien" d="M35.7,18h-2.4c-0.166,0-0.3-0.134-0.3-0.3v-2.4c0-0.166,0.134-0.3,0.3-0.3h2.4    c0.166,0,0.3,0.134,0.3,0.3v2.4C36,17.866,35.866,18,35.7,18z" style="fill: #3A3A3A;"/>
		<path class="fandom_vier" d="M36,2.5C36,3.328,35.328,4,34.5,4S33,3.328,33,2.5S33.672,1,34.5,1S36,1.672,36,2.5z M33.3,15    c-0.166,0-0.3,0.134-0.3,0.3v2.4c0,0.166,0.134,0.3,0.3,0.3h2.4c0.166,0,0.3-0.134,0.3-0.3v-2.4c0-0.166-0.134-0.3-0.3-0.3H33.3z     M35.7,14c0.717,0,1.3,0.583,1.3,1.3v2.4c0,0.717-0.583,1.3-1.3,1.3h-2.4c-0.717,0-1.3-0.583-1.3-1.3v-2.4    c0-0.717,0.583-1.3,1.3-1.3H35.7z" style="fill: #FFC865;"/>
		<path class="fandom_drie" d="M33.831,1.164C33.34,1.411,33,1.913,33,2.5C33,3.328,33.672,4,34.5,4c0.587,0,1.089-0.34,1.336-0.831    C34.548,3.816,33.184,2.451,33.831,1.164z" style="fill: #BE9148;"/>
		<path class="fandom_tien" d="M41.647,13H31.286c1.617-1.267,2.485-5.909,2.898-9.035C34.286,3.987,34.391,4,34.5,4    c0.294,0,0.567-0.088,0.799-0.235c1.071,2.337,2.922,6.258,3.643,7.074c0.575,0.65,1.77,1.183,2.838,1.556    C42.139,12.521,42.033,13,41.647,13z M30.965,8.521l-1.669-3.339C29.235,5.061,29.117,5,29,5v4h1.669    C30.915,9,31.075,8.741,30.965,8.521z" style="fill: #8579A3;"/>
		<path class="fandom_vijf" d="M38,26.235c-0.045,0.226-0.162,0.422-0.34,0.568l-5.112,4.03C31.885,31.273,31,30.791,31,29.995    l0-1.302c0-0.343,0.178-0.663,0.468-0.846l5.34-4.679c0.442-0.396,1.156-0.054,1.192,0.635V26.235z M30.94,40.634    c-0.277,0.137-0.473,0.397-0.533,0.701l-0.679,3.45c-0.087,0.44,0.404,0.764,0.772,0.51L38.549,40    C38.832,39.814,39,39.503,39,39.165V37.14c0-0.42-0.484-0.654-0.811-0.391L30.94,40.634z M22,43    c0.536-2.571-1.312-3.671-1.852-3.933c-0.879,0.147-1.649,0.573-1.928,1.371c-0.029,0.084-0.039,0.172-0.043,0.261    c-0.448,0.173-0.836,0.419-1.111,0.773c-0.423,0.543-0.517,1.162-0.27,1.793c0.055,0.14,0.127,0.265,0.21,0.382    C16.223,43.822,16,44.396,16,44.789c-0.001,1.239,1.246,1.207,1.246,1.207h5.756C23.777,44.591,22,43,22,43z M32,57    c11.348,0,20.924-7.563,23.977-17.922c-1.315,0.083-3.063,0.279-3.857,0.384c-2.643,2.228-7.559,6.463-10.374,9.039    c-3.932,3.599-6.078,4.366-12.051,4.499c-4.939,0.11-7.643,0.172-9.687,0.94C23.569,55.89,27.654,57,32,57z" style="fill: #018273;"/>
		<path class="fandom_zes" d="M23.614,45.996h-0.612C23.777,44.591,22,43,22,43c0.536-2.571-1.312-3.671-1.852-3.933    c0.76-0.127,1.601-0.048,2.285,0.209c1.305,0.491,1.614,2.108,1.357,2.72c1.358-0.273,2.211,1.39,2.21,2.532    C25.999,46.155,23.614,45.996,23.614,45.996z M52.12,39.462c-1.51,0.2-2.962,0.648-4.278,1.592    c-2.038,1.463-2.879,2.984-5.705,3.062C39.551,44.188,36.601,44.002,34,44c-2.746-0.002-5.583,0.375-7.172,2.047    c-0.658,0.693-1.01,1.534-1.596,2.271c-1.522,1.916-5.77,2.802-8.519,3.456c1.037,0.803,2.137,1.53,3.294,2.164    c2.007-0.758,4.572-0.792,9.689-0.939c5.972-0.171,8.118-0.901,12.051-4.499C44.562,45.924,49.478,41.689,52.12,39.462z" style="fill: #00B3AA;"/>
		<path class="fandom_negen" d="M29,5v4h-1.669c-0.246,0-0.406-0.259-0.296-0.479l1.669-3.339C28.765,5.061,28.883,5,29,5z     M33.701,3.765c-1.068,2.33-2.92,6.256-3.643,7.074c-0.575,0.65-1.77,1.183-2.838,1.556C26.861,12.521,26.967,13,27.353,13h3.933    c1.617-1.267,2.485-5.909,2.898-9.035C34.009,3.928,33.847,3.858,33.701,3.765z" style="fill: #685683;"/>
	</g>
</g>
<metadata><work rdf:about=""><format>image/svg+xml</format><type rdf:resource="http://purl.org/dc/dcmitype/StillImage"/><license rdf:resource="http://creativecommons.org/licenses/by/4.0/"/><attributionname>Carol Liao</attributionname><attributionurl>http://www.toicon.com/icons/fandom_ascend</attributionurl></work></metadata></svg>
