<?xml version="1.0" encoding="UTF-8"?>
<!-- Generator: Adobe Illustrator 19.1.0, SVG Export Plug-In . SVG Version: 6.00 Build 0)  -->
<!DOCTYPE svg PUBLIC "-//W3C//DTD SVG 1.1//EN" "http://www.w3.org/Graphics/SVG/1.1/DTD/svg11.dtd">
<svg xmlns="http://www.w3.org/2000/svg" xmlns:xlink="http://www.w3.org/1999/xlink" xmlns:dc="http://purl.org/dc/elements/1.1/" xmlns:cc="http://creativecommons.org/ns#" xmlns:rdf="http://www.w3.org/1999/02/22-rdf-syntax-ns#" version="1.1" id="DESIGNS" x="0px" y="0px" width="64px" height="64px" viewBox="0 0 64 64" style="enable-background:new 0 0 64 64;" xml:space="preserve">
<title property="dc:title">to transform</title><desc property="dc:description">An icon for "transform" from the Fandom series on to [icon]. Downloaded from http://www.toicon.com/icons/fandom_transform by 79.151.191.67 on 2022-03-24. Licensed CC-BY, see http://toicon.com/license/ for details.</desc>
<g>
	<g>
		<path class="fandom_tien" d="M32,7C18.193,7,7,18.193,7,32h50C57,18.193,45.807,7,32,7z" style="fill: #8579A3;"/>
		<path class="fandom_negen" d="M32,57c13.807,0,25-11.193,25-25H7C7,45.807,18.193,57,32,57z" style="fill: #685683;"/>
	</g>
	<g>
		<path class="fandom_veertien" d="M51.207,19.538c-0.448-0.876-1.786-0.38-1.557,0.577c0.706,2.939,1.58,6.347-0.373,8.575    c-1.024,1.197-2.716,1.809-4.23,2.219c-1.035,0.28-3.057,0.947-3.057,0.947c0.545-1.569,0.638-3.442,0.458-5.414    c-0.444-4.864-2.213-9.772-6.418-12.335c-2.248-1.37-5.368-2.014-7.781-1.207c-4.233-1.43-8.246-0.359-8.312,1.171    c-0.725-1-4.617,1.655-6.363,3.804c-2.37,1.128-4.198,3.159-5.457,5.472c-2.337,4.295-1.685,7.96,0.405,12.32    c1.572,3.279,3.104,5.392,7.636,7.219c-0.924,0.464-1.865,0.984-2.823,1.564c-1.31,0.789-2.933,1.584-4.472,1.473    c-2.921-0.156-4.798-3.201-6.386-5.674c-0.534-0.831-1.815-0.204-1.492,0.729c1.299,3.76,3.531,7.556,7.412,8.24    c5.541,1.111,7.929-3.368,16.647-4.077c4.587-0.385,5.488,0.76,6.869-0.939c2.157,0.175,1.933-1.224,5.461-4.319    c6.58-5.8,11.486-4.501,14.582-9.214C54.224,27.362,53.033,23.107,51.207,19.538z M30.064,39.875    c-1.87-0.177-3.834-0.106-5.895,0.26l-5.038-11.7c-0.65-1.524,0.058-3.286,1.581-3.937l4.995-2.132    c1.524-0.65,3.286,0.058,3.937,1.581l4.945,11.66C32.919,36.8,31.394,38.208,30.064,39.875z" style="fill: #EFEAE0;"/>
		<path class="fandom_vier" d="M20.108,13.553c-0.314-0.163-0.613-0.424-0.792-0.842c-0.335-0.785,0.169-1.345,0.553-1.637    c0.177-0.134,0.198-0.389,0.035-0.54c-0.686-0.64-2.28-2.155-3.375-3.425c-0.194-0.224-0.513-0.115-0.483,0.206    c0.159,1.669,0.151,3.869,0.138,4.807c-0.003,0.222,0.195,0.384,0.415,0.349c0.477-0.076,1.23-0.052,1.565,0.733    c0.153,0.358,0.161,0.701,0.098,1.005c0.53-0.255,1.344-0.595,1.676-0.137C19.945,13.899,19.998,13.722,20.108,13.553z" style="fill: #FFC865;"/>
		<path class="fandom_zeventien" d="M24.169,40.134c2.061-0.366,4.025-0.437,5.895-0.26c1.33-1.667,2.855-3.075,4.526-4.267    l-4.945-11.66c-0.65-1.524-2.413-2.232-3.937-1.581l-4.995,2.132c-1.524,0.65-2.232,2.413-1.581,3.937L24.169,40.134z" style="fill: #666666;"/>
		<path class="fandom_negentien" d="M60.724,30.673c-1.563-6.516-8.139-10.543-14.652-8.981c-2.129,0.511-4.08,1.48-5.744,2.793    c-0.386-1.757-0.929-3.411-1.565-4.753c-1.457-3.073-3.708-5.635-6.856-7.08c-0.024-0.094-2.102-0.272-3.658,0.249    c3.732,1.261,6.437,4.083,8.101,7.594c0.782,1.649,1.433,3.815,1.819,6.07c-1.256,1.479-2.229,3.201-2.837,5.081    c-0.553-2.595-1.375-5.535-2.592-8.388c-2.55-5.974-8.225-10.686-9.553-10.968c-1.152,0.14-3.25,0.628-3.249,1.777    c0,0,3.937,6.089,4.895,8.672l0.875-0.374c1.524-0.65,3.286,0.058,3.937,1.581l0.006,0.014c0,0,4.94,11.646,4.94,11.646    c0.002-0.037-0.004,0.61,0.053,1.526c0.095,1.537,0.59,3.068,0.198,4.304c-0.587,1.85-5.234,3.838-6.985,2.981    c-1.162-0.57-1.923-1.983-2.971-3.12c-0.356-0.386-0.728-0.748-1.115-1.089c0.277-0.054,0.542-0.1,0.399-0.075l-0.712-1.654    c-2.013-1.734-3.912-4.115-5.353-7.171c-2.635-5.586-3.645-11.183-0.809-16.602c-2.322,1.288-4.142,3.367-5.422,5.719    c-2.581,4.742-1.861,8.79,0.447,13.605c0.409,0.854,0.887,1.685,1.428,2.473c-0.767,0.008-1.535,0.074-2.296,0.2    c-0.343-0.57-0.658-1.16-0.948-1.764c-2.719-5.672-3.092-10.32,0.839-15.615c-1.316,1.102-2.398,2.498-3.227,4.022    c-2.337,4.294-1.685,7.96,0.405,12.32c0.262,0.546,0.523,1.062,0.8,1.552c-1.21,0.389-2.384,0.937-3.492,1.649    c-5.636,3.623-7.274,11.157-3.651,16.793c4.612,7.171,15.619,5.42,17.262-2.135c0.461-2.124,0.069-4.301-1.106-6.13    c-2.001-3.11-6.16-4.016-9.272-2.016c-2.594,1.669-3.334,5.11-1.673,7.694c1.388,2.158,4.274,2.786,6.432,1.398    c1.819-1.17,2.348-3.602,1.179-5.422c-0.716-1.113-2.398-0.032-1.683,1.082c0.573,0.892,0.314,2.084-0.578,2.657    c-1.231,0.792-2.877,0.434-3.668-0.798c-1.066-1.658-0.588-3.862,1.071-4.93c2.186-1.402,5.105-0.77,6.509,1.415    c0.887,1.379,1.183,3.021,0.834,4.623c-1.259,5.793-9.976,7.155-13.625,1.478c-3.027-4.708-1.659-11.002,3.05-14.029    c1.117-0.717,2.321-1.245,3.565-1.585c1.222,1.549,2.882,2.804,5.681,3.922c0.402-0.202,0.801-0.393,1.196-0.574    c-1.891-0.919-3.398-2.222-4.619-3.755c0.903-0.082,1.812-0.069,2.712,0.037c1.138,1.182,2.46,2.175,3.953,2.867    c0.646-0.243,1.283-0.458,1.911-0.645c0.751,0.524,1.457,1.136,2.104,1.837c1.008,1.094,1.898,2.745,3.561,3.56    c2.866,1.408,8.802-1.12,9.772-4.171c0.56-1.765-0.016-3.559-0.108-5.034c-0.17-2.741,0.535-5.335,1.87-7.515    c0.08,1.357,0.042,2.681-0.143,3.876c0.794-0.389,1.607-0.745,2.438-1.071c0.232-1.69,0.182-3.616-0.073-5.527    c1.605-1.5,3.592-2.602,5.807-3.133c5.442-1.307,10.935,2.06,12.241,7.503c1.583,6.598-5.456,11.902-10.494,8.816    c-1.397-0.857-2.378-2.207-2.761-3.801c-0.293-1.224-0.093-2.488,0.564-3.561c0.657-1.073,1.693-1.825,2.917-2.118    c1.911-0.458,3.839,0.711,4.302,2.637c0.341,1.423-0.539,2.858-1.961,3.2c-1.031,0.246-2.073-0.392-2.319-1.422    c-0.308-1.28-2.254-0.826-1.945,0.467c0.504,2.103,2.627,3.402,4.731,2.9c2.495-0.601,4.038-3.118,3.439-5.612    c-0.727-3.029-3.761-4.824-6.713-4.115c-1.743,0.418-3.218,1.49-4.155,3.019s-1.222,3.329-0.804,5.072    C46.302,47.959,63.537,42.391,60.724,30.673z" style="fill: #CCCCCC;"/>
	</g>
</g>
<metadata><work rdf:about=""><format>image/svg+xml</format><type rdf:resource="http://purl.org/dc/dcmitype/StillImage"/><license rdf:resource="http://creativecommons.org/licenses/by/4.0/"/><attributionname>Carol Liao</attributionname><attributionurl>http://www.toicon.com/icons/fandom_transform</attributionurl></work></metadata></svg>
