<?xml version="1.0" encoding="UTF-8"?>
<!-- Generator: Adobe Illustrator 19.1.0, SVG Export Plug-In . SVG Version: 6.00 Build 0)  -->
<!DOCTYPE svg PUBLIC "-//W3C//DTD SVG 1.1//EN" "http://www.w3.org/Graphics/SVG/1.1/DTD/svg11.dtd">
<svg xmlns="http://www.w3.org/2000/svg" xmlns:xlink="http://www.w3.org/1999/xlink" xmlns:dc="http://purl.org/dc/elements/1.1/" xmlns:cc="http://creativecommons.org/ns#" xmlns:rdf="http://www.w3.org/1999/02/22-rdf-syntax-ns#" version="1.1" id="DESIGNS" x="0px" y="0px" width="64px" height="64px" viewBox="0 0 64 64" style="enable-background:new 0 0 64 64;" xml:space="preserve">
<title property="dc:title">to race</title><desc property="dc:description">An icon for "race" from the Fandom series on to [icon]. Downloaded from http://www.toicon.com/icons/fandom_race by 79.151.191.67 on 2022-03-24. Licensed CC-BY, see http://toicon.com/license/ for details.</desc>
<g>
	<g>
		<path class="fandom_negen" d="M32,57c13.807,0,25-11.193,25-25H7C7,45.807,18.193,57,32,57z" style="fill: #685683;"/>
		<path class="fandom_tien" d="M32,7C18.193,7,7,18.193,7,32h50C57,18.193,45.807,7,32,7z" style="fill: #8579A3;"/>
	</g>
	<g>
		<path class="fandom_zestien" d="M56.045,35.652c-2.566,4.452-9.956,3.618-11.316,1.994l-14.424,6.252    c-0.595,1.147-3.14,2.916-4.068,3.29c-0.112,1.593-4.476,5.425-9.909,5.059c-2.193-0.148-1.998-0.286-4.492-0.979    C5.266,51.25-4.488,38.462,8.547,28.531l3.627-2.094c2.573-0.874,4.686-0.465,5.755-0.125c0.534,0.17,1.117,0.094,1.606-0.18    l6.432-3.209l0.391,0.611l4.225-1.168c1.101-0.304,2.347-0.12,3.33,0.514c0.466,0.3,0.926,0.616,1.396,0.884L36,21.125    c0.431-0.996,1.059-1.469,2.042-1.708l9.667-3.236c0.917-0.361,1.328-0.239,1.63,0.601l3.546,0.857    c-0.107,0.023-0.215,0.038-0.322,0.069c-3.921,1.142-4.498,6.502-3.299,10.617C50.462,32.436,53.204,35.36,56.045,35.652z     M51.184,27.765c1.123,3.855,3.812,6.463,6.005,5.824s3.061-4.282,1.938-8.138s-3.812-6.463-6.005-5.824    S50.061,23.91,51.184,27.765z" style="fill: #4D4D4D;"/>
		<path class="fandom_zeventien" d="M9.856,27.773c-0.405,0.234-0.841,0.487-1.309,0.758c-12.256,9.337-4.672,22.094,3.289,22.737    C3.333,42.803,4.917,35.309,9.856,27.773z" style="fill: #666666;"/>
		<path class="fandom_vijftien" d="M38.042,19.417c0,0,5.211,0.758,6.005,1.724c2.329,2.833-3.157,5.604-5.223,4.501l-3.515-1.877    L36,21.125C36.431,20.129,37.059,19.656,38.042,19.417z M19.535,26.132l6.445-3.216c-1.264,0.052-4.477,0.179-5.627,0.218    c-0.45,0.015-0.89,0.088-1.319,0.225c-1.179,0.376-3.764,1.307-6.858,3.077c2.573-0.874,4.686-0.465,5.755-0.125    C18.463,26.483,19.045,26.406,19.535,26.132z M26.187,47.449c-0.509,1.712-4.702,5.146-9.859,4.799    c-2.194-0.148-1.998-0.286-4.492-0.979C8.292,47.74,6.5,44.38,5.974,41.116c3.628,2.155,7.398,2.271,10.672,1.592    C18.684,46.186,22.409,48.569,26.187,47.449z M56.062,35.663c-2.559,4.455-9.881,3.577-11.333,1.983l-14.281,6.19    c1.405-2.603,1.496-5.859,0.658-8.735c-0.633-2.172-1.789-4.1-3.255-5.523c0.54-1.233,1.862-1.983,3.241-1.753L44.125,30    c2.055,0.659,4.044,0.366,5.658-0.192C51.152,33.136,53.57,35.417,56.062,35.663z M25.601,45.537    c-1.216,0.354-2.492,0.183-3.684-0.398c2.497-1.83,3.723-5.027,2.829-8.096c-0.907-3.115-3.727-5.168-6.871-5.318    c0.697-1.208,1.713-2.099,2.984-2.469c3.29-0.958,7.019,1.909,8.328,6.405S28.891,44.578,25.601,45.537z M57.189,33.589    c-1.094,0.319-2.311-0.171-3.396-1.219c2.026-0.57,3.042-3.239,2.253-5.948c-0.795-2.73-3.121-4.454-5.166-3.785    c0.334-1.546,1.11-2.679,2.241-3.009c2.193-0.639,4.882,1.968,6.005,5.824S59.383,32.95,57.189,33.589z" style="fill: #3A3A3A;"/>
		<path class="fandom_acht" d="M31.106,35.101c-1.537-5.277-6.167-9.118-10.808-7.766c-4.417,1.287-6.59,6.714-4.946,12.356    c1.623,5.572,6.396,9.052,10.808,7.766C30.934,46.066,32.586,40.181,31.106,35.101z M25.601,45.537    c-3.29,0.958-7.019-1.909-8.328-6.406c-1.31-4.496,0.296-8.918,3.585-9.876c3.29-0.958,7.019,1.909,8.328,6.405    S28.891,44.578,25.601,45.537z M44.673,27.491c-3.513,1.732-9.203,0.847-9.879,5.05c-0.433,2.691-0.243,6.69-0.026,9.423    c-0.696,0.302-1.353,0.586-1.937,0.84c-0.243-2.809-0.513-7.461-0.012-10.58c0.935-5.811,7.801-4.964,10.969-6.527    c1.291-0.637,3.356-3.306,1.169-5.259c-1.548-1.383-4.16-1.257-6.163-1.273c0,0,3.401-1.138,3.401-1.138    c0.263-0.088,2.659,0.168,3.757,0.801C49.794,21.043,47.568,26.066,44.673,27.491z M61.047,24.892    c-1.437-4.933-5.098-8.171-8.485-7.185c-3.921,1.142-4.498,6.502-3.299,10.617c1.437,4.933,5.098,8.171,8.485,7.184    C61.67,34.367,62.246,29.007,61.047,24.892z M57.189,33.589c-2.193,0.639-4.882-1.968-6.005-5.824s-0.255-7.499,1.938-8.138    s4.882,1.968,6.005,5.824S59.383,32.95,57.189,33.589z" style="fill: #6BC4D2;"/>
		<path class="fandom_veertien" d="M1.328,41.675c-0.808-3.426,0.785-6.994,0.854-7.145c0.542-1.197,2.368-0.389,1.821,0.825    c-0.014,0.03-1.377,3.109-0.728,5.86C3.579,42.5,1.637,42.975,1.328,41.675z M9.921,41.643c-1.446-3.03,0.47-6.447,0.5-6.5    c0.667-1.153-1.07-2.14-1.729-1.004c-0.103,0.177-2.487,4.361-0.575,8.365C8.683,43.688,10.498,42.85,9.921,41.643z" style="fill: #EFEAE0;"/>
	</g>
</g>
<metadata><work rdf:about=""><format>image/svg+xml</format><type rdf:resource="http://purl.org/dc/dcmitype/StillImage"/><license rdf:resource="http://creativecommons.org/licenses/by/4.0/"/><attributionname>Carol Liao</attributionname><attributionurl>http://www.toicon.com/icons/fandom_race</attributionurl></work></metadata></svg>
